<svg width="173" height="241" viewBox="0 0 173 241" fill="none" xmlns="http://www.w3.org/2000/svg">
    <rect width="173" height="241" fill="white" fill-opacity="0"/>
    <path d="M103.538 7H106.99L111.226 7.36731L113.422 7.73461L115.462 8.10192L118.6 8.83653L120.012 9.20384L121.581 9.57114L123.464 10.3058L125.033 11.2852L125.817 9.81602L126.288 9.32627L126.916 9.0814H128.014L129.583 9.81602L130.681 11.0404L131.622 12.632L131.936 13.8564V14.9583L132.721 14.591L134.133 13.734L135.702 12.9993L137.584 12.5096H139.153L140.095 12.9993L140.409 13.4891L140.566 14.3461L140.252 15.448L139.153 16.9173L138.84 17.407H143.547L147.469 18.1416L149.352 18.6314L151.705 19.7333L152.96 20.5903L153.745 21.8147L153.588 22.5493L152.96 23.2839L151.548 24.0185L150.293 24.5083H149.666L150.136 24.8756L151.391 25.6102L152.176 26.0999L152.96 26.8345V27.0794H153.274L154.686 29.4057L155 30.3852V32.7114L154.686 33.4461L153.274 34.6704L151.548 35.5275L150.607 35.6499L150.764 36.2621H151.078L151.705 37.8537V39.0781L151.234 40.18L150.136 40.9146L149.195 41.2819L149.666 42.5063L149.979 44.2204V46.0569L149.509 47.8934L149.038 48.8729L148.253 49.6075L147.783 49.9749L146.998 49.8524L146.057 48.9954L145.743 48.8729V50.2197L146.998 50.9543L147.783 51.6889L148.567 53.0357L149.038 54.7498V55.8518L148.567 57.6883L147.783 59.5248L146.684 60.8716L145.272 62.096L143.703 62.953L142.134 63.5652L140.722 63.8101H138.212L137.114 63.6876L135.702 65.0344L134.29 66.2588L132.564 67.3607L130.995 68.3402L128.171 69.687L125.66 70.6664L122.209 71.8908L120.64 72.3805L117.972 72.9927V73.2376L119.855 73.8498L121.267 74.5844L122.522 75.5639L123.778 77.278L124.562 78.8696L125.033 80.3388L125.19 81.4408L125.503 86.9504L125.66 87.0728L125.817 93.317L127.7 94.0516L128.484 94.5414V94.7862L128.955 94.9087L130.21 96.6228L130.995 98.3369L131.622 100.541L132.093 103.479V106.785L131.779 106.907L131.622 110.825L131.309 113.886L130.681 117.314L130.053 119.273L129.112 120.743L128.484 121.11H128.171V121.355L125.817 121.967L126.288 120.865L127.7 120.253L128.328 119.518L129.112 117.314L129.74 114.009L130.053 111.315V106.54L129.897 103.234L129.74 102.01L129.112 101.765L128.641 101.398L127.857 101.153V100.908L126.445 100.541L124.405 100.173L122.209 100.296L120.797 100.786L120.169 101.03L119.384 101.643L118.6 102.132L118.443 102.377H118.129L117.816 103.602L117.502 106.54L117.345 106.662L116.874 109.601L116.717 110.948V116.457L117.031 118.539L117.502 119.518L117.972 120.008L118.443 120.13V121.355L117.659 121.11L117.031 120.865L116.247 120.13L115.619 119.028L115.305 117.559L115.148 115.968V111.927L115.462 107.642V104.948L115.933 102.5L116.403 100.663L117.031 99.0715L117.816 97.6022L118.443 96.7452L118.914 95.8882L120.326 94.6638L121.738 93.8068L123.307 93.317H123.621L123.464 91.7253V85.2363L123.15 82.4203L122.679 80.3388L122.366 79.2369L121.738 77.7677L120.797 76.6658L120.169 76.0536L118.6 75.1966L116.874 74.5844L113.736 74.4619L114.05 75.5639V76.4209L115.619 76.5433H115.933L116.717 76.0536H117.972L118.443 76.176L118.286 77.1555L117.188 80.4613L116.247 83.1549L115.305 85.9709L114.521 88.4196L113.736 90.6234L113.109 92.7048L112.324 94.9087L111.697 96.9901L111.069 98.7042L110.284 101.398L109.814 104.214L109.5 108.866V111.805L109.657 114.009V123.069L109.343 135.925V154.902L109.657 156.861L109.814 159.799L110.912 170.451L112.952 190.776V192H110.912L106.048 191.755L104.793 191.633V190.408L106.362 174.247L106.676 170.696L106.833 167.88L107.303 164.574L107.617 160.289L108.088 156.371L108.245 154.045V146.699L108.088 139.598L107.617 124.783L107.46 118.171L107.147 115.111L106.362 109.356L105.264 102.377L104.479 98.4593L103.852 95.1535L103.381 92.5824L101.812 83.8895L100.871 78.9921L100.714 77.7677L101.341 77.278H101.655L102.126 78.2574L103.224 78.0126L103.067 76.176L102.283 76.2985L100.086 77.1555L98.9879 77.7677H98.6741V78.0126L97.419 78.8696L96.3207 79.7267L95.2224 81.0735L94.7517 82.1754L94.4379 83.3997L93.9672 84.3792L93.6534 86.0933V90.3786L93.9672 93.8068L94.4379 95.0311L94.5948 99.5612L94.9086 102.01L95.2224 110.58L95.3793 112.295L95.5362 116.212L96.3207 116.335L97.5759 117.069L98.5172 118.171L98.9879 119.151V121.355L98.5172 122.334L97.419 123.681L96.1638 124.293L95.2224 124.538H93.9672L92.5552 124.048L91.4569 123.069L90.2017 121.355L90.0448 120.865V119.763L90.5155 118.784L91.6138 117.192L92.7121 116.457L93.3397 116.212V114.498L93.0259 108.621L92.869 108.254L92.7121 104.091L92.2414 98.8266L92.0845 95.7657L91.9276 95.6433L91.3 90.2561V85.9709L91.9276 83.5222L92.869 81.0735L93.8103 79.6042L95.3793 78.0126L96.6345 77.0331L98.831 75.8087L100.714 74.9517L102.126 74.4619L102.283 74.2171L100.714 74.0946L95.85 72.9927L92.5552 71.8908L88.1621 69.8094L86.2793 68.7075L84.5534 67.6056L82.9845 66.5036L81.2586 65.1568L79.8466 63.8101L78.1207 61.9735L76.7086 60.0146L76.2379 59.4024L75.9241 58.5453L73.8845 58.178L72.0017 57.4434L71.0603 56.8312L69.6483 55.362L68.7069 53.5255L68.2362 51.6889V49.8524L68.8638 47.771L69.8052 46.4242L70.9034 45.4447L71.2172 45.3223L70.9034 42.139L69.8052 42.0165L69.4914 41.7717L69.3345 41.2819V40.18L69.6483 39.0781L67.6086 39.5678L66.981 39.6903H65.7259L65.2552 39.4454L65.0983 38.5884L65.569 37.364L66.5103 36.0172L67.2948 35.1602L66.5103 35.0377L65.7259 34.7929V34.548L65.0983 34.3031L64.4707 33.6909L64.1569 33.2012L64 32.4666V31.4871L64.3138 29.8954L65.0983 28.6711L66.1966 27.5692L67.6086 26.3448L68.0793 25.9775H68.3931V25.7326L67.7655 25.4878L67.6086 25.1204H67.2948L67.1379 24.6307V23.5288L67.4517 22.7942L67.7655 22.3044L68.55 21.6923L70.5897 20.3455L72.7862 19.2435L74.8259 18.5089L76.3948 18.1416L77.65 18.0192L79.219 16.4275L81.2586 14.9583L83.9259 13.4891L86.4362 12.5096L88.6328 12.0199L90.0448 11.775H92.7121L93.1828 10.7955L94.281 10.0609L95.6931 9.69358H98.0466L100.557 10.3058V9.44871L101.184 8.10192L102.283 7.36731L103.538 7Z" fill="#F7B38E"/>
    <path d="M102.593 6.66797H105.966L110.105 7.03564L112.252 7.40332L114.245 7.771L117.312 8.50635L118.691 8.87402L120.225 9.2417L122.064 9.97705L123.598 10.9575L124.364 9.48682L124.824 8.99658L125.438 8.75146H126.511L128.044 9.48682L129.117 10.7124L130.037 12.3057L130.344 13.5312V14.6343L131.11 14.2666L132.49 13.4087L134.023 12.6733L135.863 12.1831H137.396L138.316 12.6733L138.623 13.1636L138.776 14.0215L138.47 15.1245L137.396 16.5952L137.09 17.0854H141.689L145.522 17.8208L147.362 18.311L149.662 19.4141L150.889 20.272L151.655 21.4976L151.502 22.2329L150.889 22.9683L149.509 23.7036L148.282 24.1938H147.669L148.129 24.5615L149.355 25.2969L150.122 25.7871L150.889 26.5225V26.7676H151.195L152.575 29.0962L152.882 30.0767V32.4053L152.575 33.1406L151.195 34.3662L149.509 35.2241L148.589 35.3467L148.742 35.9595H149.049L149.662 37.5527V38.7783L149.202 39.8813L148.129 40.6167L147.209 40.9844L147.669 42.21L147.976 43.9258V45.7642L147.516 47.6025L147.056 48.583L146.289 49.3184L145.829 49.686L145.062 49.5635L144.143 48.7056L143.836 48.583L143.529 50.0537L142.609 51.7695L141.843 52.5049L141.536 52.6274H140.31L140.003 54.5884L139.083 55.5688L138.47 55.3237L137.55 53.7305L135.557 49.686L134.483 46.7446L133.87 43.6807L133.717 42.7002L132.95 42.9453L132.03 42.3325L131.724 41.4746V40.3716V40.0039L130.344 40.6167H126.664L124.211 40.1265L122.371 39.5137L122.064 40.1265L120.838 40.8618L120.531 41.1069L122.064 41.5972L123.751 42.5776L124.518 43.313L124.824 44.1709L124.518 44.6611L123.751 44.5386L121.911 43.4355L120.838 43.0679H119.305L116.545 43.6807L114.092 44.6611H113.172L112.405 44.1709L111.945 43.313V42.4551L112.712 42.0874L114.398 41.5972L116.085 41.4746L113.938 40.6167L112.865 39.8813L112.252 39.3911L111.179 40.0039L110.105 40.249L108.112 40.1265L106.426 39.3911L105.506 39.5137L103.973 40.1265L101.826 40.6167H98.9131L97.3799 40.1265L96.1533 39.3911L95.0801 38.4106L94.9268 37.6753L93.2402 38.2881L91.707 38.4106L90.4805 38.1655L88.6406 37.1851V37.9204L87.874 39.5137L86.9541 40.4941L85.8809 40.6167L85.1143 40.1265L84.6543 39.146L83.8877 41.5972L82.9678 43.6807L81.4346 46.0093L80.3613 47.2349L79.9014 47.6025L78.8281 47.7251L78.2148 47.3574L78.0615 48.7056L77.1416 51.4019L76.5283 51.8921L75.4551 52.0146L75.1484 51.4019L74.8418 49.686L74.6885 48.0928L73.9219 48.2153L73.1553 47.7251L71.9287 46.1318L71.3154 45.1514L70.8555 43.9258L70.7021 41.8423L69.6289 41.7197L69.3223 41.4746L69.1689 40.9844V39.8813L69.4756 38.7783L67.4824 39.2686L66.8691 39.3911H65.6426L65.1826 39.146L65.0293 38.2881L65.4893 37.0625L66.4092 35.7144L67.1758 34.8564L66.4092 34.7339L65.6426 34.4888V34.2437L65.0293 33.9985L64.416 33.3857L64.1094 32.8955L63.9561 32.1602V31.1797L64.2627 29.5864L65.0293 28.3608L66.1025 27.2578L67.4824 26.0322L67.9424 25.6646H68.249V25.4194L67.6357 25.1743L67.4824 24.8066H67.1758L67.0225 24.3164V23.2134L67.3291 22.478L67.6357 21.9878L68.4023 21.375L70.3955 20.0269L72.542 18.9238L74.5352 18.1885L76.0684 17.8208L77.2949 17.6982L78.8281 16.105L80.8213 14.6343L83.4277 13.1636L85.8809 12.1831L88.0273 11.6929L89.4072 11.4478H92.0137L92.4736 10.4673L93.5469 9.73193L94.9268 9.36426H97.2266L99.6797 9.97705V9.11914L100.293 7.771L101.366 7.03564L102.593 6.66797Z" fill="#3A1701"/>
    <path d="M40.8047 78.9775H41.7246L42.1846 82.6543L43.1045 88.9048L43.2578 90.0078L44.1777 90.2529L45.4043 91.1108L46.4775 92.0913L47.2441 93.3169L48.0107 95.4004L48.624 97.9741V98.2192L50.0039 98.5869L51.9971 99.1997L52.1504 99.4448L50.3105 102.999L48.9307 105.45H48.3174L46.0176 104.102L45.0977 103.734L45.4043 105.328L45.5576 107.043L45.8643 108.269L46.0176 110.23L46.4775 112.681L46.6309 114.274L46.9375 115.99V116.603L46.0176 116.848L42.9512 117.216L41.7246 117.461L38.9648 117.829L36.0518 118.319L28.0791 119.544L23.7861 120.157L20.873 120.647L18.8799 120.893L15.0469 121.383L13.667 121.628H13.0537L12.7471 119.177L12.4404 117.706L12.2871 115.99L11.9805 114.887L11.3672 109.74L10.9072 107.289L10.7539 105.45L10.2939 102.999L9.83398 99.3223L9.52734 97.729L9.06738 93.9297L7.84082 85.3506L7.6875 83.8799L8.4541 83.6348L15.8135 82.5317L16.1201 82.1641L24.2461 80.9385L32.5254 79.8354H34.3652L40.8047 78.9775Z" fill="#FAFAFB"/>
    <path d="M102.593 6.66797H105.966L109.032 6.91309L108.419 7.03564V7.28076L109.799 7.52588L110.872 7.64844L112.252 7.89355L114.092 8.50635L116.238 9.2417L117.312 9.85449L118.998 10.5898L121.145 11.8154L122.678 12.9185L123.904 14.144L124.824 15.6147L124.978 16.3501L124.824 16.5952H120.991L118.691 16.7178V17.0854L120.685 17.208L122.371 17.6982L123.598 18.5562L123.904 19.2915L124.824 18.9238L126.971 17.5757L128.964 16.5952H130.19L130.957 17.0854L131.11 17.6982L130.497 18.9238L129.884 19.6592L129.424 20.1494L130.19 20.0269L131.417 19.6592L133.41 19.4141L136.323 19.2915L138.776 19.7817L140.31 20.5171L141.229 21.375V22.3555L140.156 23.3359L137.856 24.1938L136.937 24.3164L137.396 25.1743L138.776 26.645L140.003 28.606V29.5864L139.236 30.5669L138.163 31.0571L137.856 31.1797H135.71L134.177 30.6895L132.49 29.8315L131.264 28.9736L130.497 27.9932L130.344 28.8511L129.424 29.3413H128.351L127.584 29.0962L127.891 29.709V30.812L126.971 31.915L125.897 32.4053H124.211L121.911 31.6699L120.225 30.9346L118.691 29.9541L118.078 29.4639H117.771L117.312 30.0767L115.932 30.812L114.705 31.1797L113.632 31.3022H111.945L110.412 31.0571L108.419 30.4443L106.579 29.4639L104.893 28.1157V28.9736L104.279 29.5864L103.513 29.9541L102.593 30.0767L101.366 29.5864L101.06 29.2188L100.6 29.0962L100.446 30.0767L99.5264 31.5474L98.4531 32.4053L97.8398 32.6504H95.8467L93.7002 31.7925L92.627 30.9346L91.4004 29.3413L90.7871 28.3608L90.4805 27.5029L89.4072 28.9736L87.874 30.5669L86.3408 31.915L84.9609 32.5278H84.041L83.5811 32.1602L82.9678 30.812L83.1211 30.1992L83.5811 29.3413L82.6611 29.9541L81.8945 30.6895L79.2881 32.2827L77.1416 33.2632L76.5283 33.5083H75.1484L74.0752 33.0181L73.7686 32.4053L73.9219 30.812L74.3818 29.9541L73.002 30.5669L70.8555 30.9346H69.6289L68.8623 30.5669L68.5557 30.3218V29.3413L69.0156 28.4834L70.2422 27.1353L70.7021 27.0127V26.7676L72.6953 25.542L75.915 24.0713L74.6885 24.1938L73.4619 24.439H71.6221L70.0889 23.9487L68.8623 22.9683V21.7427L69.1689 21.0073L69.7822 20.3945L72.2354 19.0464L73.9219 18.4336L75.6084 17.9434L77.2949 17.6982L78.8281 16.105L80.8213 14.6343L83.4277 13.1636L85.8809 12.1831L88.0273 11.6929L89.4072 11.4478H92.0137L92.4736 10.4673L93.5469 9.73193L94.9268 9.36426H97.2266L99.6797 9.97705V9.11914L100.293 7.771L101.366 7.03564L102.593 6.66797ZM68.8623 21.0073L69.1689 21.1299L68.0957 21.8652L68.4023 21.375L68.8623 21.0073ZM67.6357 21.9878L67.9424 22.1104L67.6357 22.2329V21.9878Z" fill="#552700"/>
    <path d="M129.271 77.3843L130.65 77.6294L133.717 78.7324L135.557 79.7129L137.09 80.6934L138.316 81.5513L139.39 82.5317L141.076 84.125L143.069 86.3311L144.603 88.1694L146.289 90.3755L148.129 93.0718L150.122 96.2583L151.962 99.6899L155.795 107.656L156.562 109.74L157.635 114.274L158.708 120.402L159.475 126.408L159.935 131.188L160.395 138.786L159.935 139.031L158.248 139.276L159.168 141.482L159.935 143.934L160.241 145.404L160.395 147.488L160.241 149.326L159.475 151.41L158.555 152.88L157.328 153.616L156.255 153.738L155.642 153.371L154.108 153.738L151.962 154.841L151.042 155.454H150.275L149.662 154.841V153.248L150.429 150.307L150.582 148.713L150.275 147.243L149.662 145.772L149.202 145.404L149.049 146.63L148.436 148.346L147.822 149.081L146.902 149.449H145.982L145.369 148.958L145.982 146.017L146.136 141.973L147.209 139.889L150.582 140.134H151.962L154.722 139.889L156.102 139.644H156.868L156.562 139.031L155.795 129.962L155.028 124.569L154.108 119.79L153.035 115.255L151.655 110.598L149.815 105.695L147.209 99.5674L145.216 95.4004L143.376 92.0913L141.996 89.7627L141.076 88.5371L140.156 87.189L138.47 84.9829L136.63 83.022L135.403 81.7964L133.104 79.8354L131.57 78.7324L131.11 78.4873H130.65L130.344 79.4678L130.19 81.4287V86.6987L130.804 90.2529L131.724 93.8071L132.644 96.626L135.25 102.999L135.557 103.734L136.017 108.882L136.63 119.422L136.937 126.04L137.243 133.148L137.55 136.948L138.776 146.875L140.003 157.538L141.383 170.529L143.376 187.81L143.683 190.628V191.486L140.003 191.854H139.083L138.316 184.01L137.856 176.902L136.783 163.175L136.323 157.66L135.71 152.88L134.637 146.14L134.483 145.895L133.257 147.488L130.804 151.165L129.117 153.493L127.277 155.699L125.897 157.17L124.824 158.273L124.671 157.905L127.124 151.777L129.117 146.752L130.957 141.605L132.184 137.438L132.95 133.761L133.257 131.065L133.563 125.672V117.583L133.257 113.294L132.797 109.985L131.724 105.573L130.957 103.122L130.497 102.141L130.19 102.631L129.73 99.5674L128.964 97.2388L127.737 95.2778L127.277 94.665L126.051 93.8071L124.211 93.0718L124.058 86.8213L123.904 86.6987L123.751 84.3701V81.9189L124.671 81.3062L125.744 80.3257L127.584 78.7324L128.351 77.9971L129.271 77.3843Z" fill="#D2D4D5"/>
    <path d="M40.8047 78.9775H41.7246L42.1846 82.6543L43.1045 88.9048L43.2578 90.0078L44.1777 90.2529L45.4043 91.1108L46.4775 92.0913L47.2441 93.3169L48.0107 95.4004L48.624 97.9741V98.2192L50.0039 98.5869L51.9971 99.1997L52.1504 99.4448L50.3105 102.999L48.9307 105.45H48.3174L46.0176 104.102L45.0977 103.734L45.4043 105.328L45.5576 107.043L45.8643 108.269L46.0176 110.23L46.4775 112.681L46.6309 114.274L46.9375 115.99V116.603L46.0176 116.848L42.9512 117.216L41.7246 117.461L38.9648 117.829L36.0518 118.319L28.0791 119.544L23.7861 120.157L20.873 120.647L18.8799 120.893L15.0469 121.383L13.667 121.628H13.0537L12.7471 119.177L12.4404 117.706L12.2871 115.99L11.9805 114.887L11.3672 109.74L10.9072 107.289L10.7539 105.45L10.2939 102.999L9.83398 99.3223L9.52734 97.729L9.06738 93.9297L7.84082 85.3506L7.6875 83.8799L8.4541 83.6348L15.8135 82.5317L16.1201 82.1641L24.2461 80.9385L32.5254 79.8354H34.3652L40.8047 78.9775ZM38.5049 82.1641L33.752 82.7769L33.1387 83.022V84.3701L33.5986 87.0664L31.9121 87.3115L31.1455 87.5566L24.0928 88.7822L19.3398 89.5176L19.1865 86.6987L18.8799 85.4731L18.7266 85.1055H17.5L11.2139 86.0859L11.0605 86.2085V87.189L12.9004 98.2192L13.667 102.876L13.8203 104.715L14.127 105.94L14.5869 109.372L15.0469 111.701L15.6602 115.5L15.9668 116.848H17.3467L31.6055 114.887L40.8047 113.662L43.1045 113.417L43.5645 113.294V112.191L43.2578 110.72L42.9512 107.779L42.4912 105.328L42.0312 101.406L41.5713 99.0771L41.2646 96.2583L40.8047 95.5229L39.4248 94.2974L38.0449 92.8267L37.585 92.0913V91.356L37.7383 91.2334L39.2715 91.356L40.3447 91.4785V89.8853L39.4248 83.022L39.1182 82.1641H38.5049Z" fill="#B4C4CD"/>
    <path d="M115.472 75.791H116.698L117.158 75.9136L117.005 76.894L115.932 80.2031L115.012 82.8994L114.092 85.7183L113.325 88.1694L112.559 90.3755L111.945 92.459L111.179 94.665L110.565 96.7485L109.952 98.4644L109.186 101.161L108.726 103.979L108.419 108.637V111.578L108.572 113.784V122.854L108.266 135.722V154.719L108.572 156.68L108.726 159.621L109.799 170.284L111.792 190.628V191.854H109.799L105.046 191.609L103.819 191.486V190.261L105.353 174.083L105.659 170.529L105.812 167.71L106.272 164.401L106.579 160.111L107.039 156.189L107.192 153.861V146.507L107.039 139.399L106.579 124.569L106.426 117.951L106.119 114.887L105.353 109.127L104.279 102.141L103.513 98.2192L102.899 94.9102L102.439 92.3364L100.906 83.6348L99.9863 78.7324L99.833 77.5068L100.446 77.0166H100.753L101.366 78.6099L101.673 79.8354L102.133 80.9385L102.439 81.9189V82.7769H102.746L103.973 87.0664L104.433 89.2725H104.893L105.199 88.5371L107.499 85.1055L109.952 81.7964L111.639 79.5903L113.325 77.6294L114.705 76.2812L115.472 75.791Z" fill="#4DBDDB"/>
    <path d="M84.3477 192.589H86.4941L91.8604 193.08L94.4668 193.202L97.2266 193.447L100.6 193.692V195.041L99.833 200.801L99.373 205.09L98.9131 207.296L98.6064 210.728L97.9932 215.018L97.6865 217.959L97.0732 218.694L95.8467 218.939L93.2402 219.185L88.0273 219.062L86.8008 218.817L84.8076 218.204L83.5811 217.346V214.65L83.8877 206.684L84.1943 193.692L84.3477 192.589Z" fill="#5C7079"/>
    <path d="M134.637 192.222H135.25L135.403 192.957L135.557 196.266L135.863 200.065L136.17 204.232L136.937 212.812L137.243 215.753V217.469L136.17 217.959L134.33 218.817L132.95 219.062H129.577L125.131 218.694V218.449L123.598 218.327L123.291 218.082L122.831 215.14L122.524 213.302L122.064 211.096L121.758 209.38L120.685 203.252L120.225 200.311L119.458 196.511L119.151 194.55V193.447L123.598 193.08L126.204 192.957L128.504 192.712L134.637 192.222Z" fill="#5B6F78"/>
    <path d="M83.8877 114.887H84.041V137.438L84.3477 140.992L84.9609 145.159L85.7275 148.836L86.6475 152.513L88.1807 157.17V157.415H87.874L87.1074 155.699L85.5742 151.777L84.6543 149.449L84.1943 148.468L83.5811 146.998L83.4277 147.61L83.5811 150.429V154.596L83.2744 160.111L82.2012 171.019L81.7412 178.373L81.5879 182.662L81.4346 192.099L81.8945 192.222L79.1348 192.099L76.375 191.854L76.2217 191.731L76.5283 182.662L76.9883 176.289L78.2148 162.808L79.5947 149.449L80.8213 136.703L81.2812 132.291L82.6611 122.363L83.7344 115.132L83.8877 114.887Z" fill="#D3D5D6"/>
    <path d="M41.1113 96.0132L41.7246 96.5034L42.0312 99.1997L42.6445 101.038L43.2578 102.019L43.7178 102.509V102.754L44.3311 102.999L45.0977 103.367L45.251 104.102L45.5576 107.043L45.8643 108.269L46.0176 110.23L46.4775 112.681L46.6309 114.274L46.9375 115.99V116.603L46.0176 116.848L42.9512 117.216L41.7246 117.461L38.9648 117.829L36.0518 118.319L28.0791 119.544L23.7861 120.157L20.873 120.647L18.8799 120.893L15.0469 121.383L13.667 121.628H13.0537L12.7471 119.177L12.4404 117.706L12.2871 115.99L11.9805 114.887L11.3672 109.74L10.9072 107.289L10.7539 105.45L10.2939 102.999L9.83398 99.3223L9.68066 98.7095V97.1162H11.2139L12.4404 97.2388L12.9004 97.3613L13.8203 102.876L13.9736 104.715L14.2803 105.94L14.7402 109.372L15.2002 111.701L15.8135 115.5L15.9668 116.848L20.1064 116.358L31.6055 114.765L40.8047 113.539L43.5645 113.294L42.9512 109.74L42.7979 107.779L42.3379 105.328L41.8779 101.406L41.418 99.0771L41.1113 96.0132Z" fill="#39626E"/>
    <path d="M124.211 218.327L125.131 218.449V218.694L128.351 218.817L129.577 218.939H132.95L134.33 218.694L135.097 218.449L136.017 220.778L137.396 225.558L138.47 229.357L138.623 231.195L137.856 232.421L136.477 233.524L135.25 234.014L132.95 234.504H129.424L126.204 233.892L124.824 232.911L124.211 231.808L123.751 230.583V227.764L124.211 223.719L124.518 219.797L124.671 218.572L124.211 218.327Z" fill="#D2D4D5"/>
    <path d="M115.932 72.7271L116.545 72.8496L118.538 73.585L119.918 74.3203L121.145 75.3008L122.371 77.0166L123.138 78.6099L123.598 80.0806L123.751 81.1836L124.058 86.6987L124.211 86.8213L124.364 93.0718L126.204 93.8071L126.971 94.2974V94.5425L127.431 94.665L128.657 96.3809L129.424 98.0967L130.037 100.303L130.497 103.244V106.553L130.19 106.676L130.037 110.598L129.73 113.662L129.117 117.093L128.504 119.054L127.584 120.525L126.971 120.893H126.664V121.138L124.364 121.75L124.824 120.647L126.204 120.035L126.817 119.299L127.584 117.093L128.197 113.784L128.504 111.088V106.308L128.351 102.999L128.197 101.773L127.584 101.528L127.124 101.161L126.357 100.916V100.67L124.978 100.303L122.984 99.9351L120.838 100.058L119.458 100.548L118.845 100.793L118.078 101.406L117.312 101.896L117.158 102.141H116.852L116.545 103.367L116.238 106.308L116.085 106.431L115.625 109.372L115.472 110.72V116.235L115.778 118.319L116.238 119.299L116.698 119.79L117.158 119.912V121.138L116.392 120.893L115.778 120.647L115.012 119.912L114.398 118.809L114.092 117.338L113.938 115.745V111.701L114.245 107.411V104.715L114.705 102.264L115.165 100.425L115.778 98.832L116.545 97.3613L117.158 96.5034L117.618 95.6455L118.998 94.4199L120.378 93.562L121.911 93.0718H122.218L122.064 91.4785V84.9829L121.758 82.1641L121.298 80.0806L120.991 78.9775L120.378 77.5068L119.458 76.4038L118.845 75.791L117.312 74.9331L115.625 74.3203L112.405 74.0752L112.712 73.585L115.932 72.7271Z" fill="#3A4C73"/>
    <path d="M88.6406 37.1851L89.2539 37.4302L90.7871 38.1655L92.3203 38.2881L93.5469 38.043L94.4668 37.6753H94.9268L95.54 38.7783L96.6133 39.6362L98.2998 40.3716L98.9131 40.4941H101.826L104.433 39.8813L105.812 39.2686L106.579 39.3911L108.112 40.0039L110.105 40.1265L111.485 39.7588L112.405 39.2686L113.019 39.8813L114.705 40.8618L116.238 41.3521L116.085 41.5972L114.092 41.7197L113.019 40.7393L112.559 40.4941L111.792 40.6167L110.565 41.1069L109.799 41.2295H108.726L107.346 40.7393L106.579 40.3716L105.506 40.6167L103.359 41.4746L102.439 41.7197H101.826L102.593 42.4551L102.439 43.313L101.979 44.416L101.366 44.9062L100.6 44.6611L99.0664 43.9258L98.1465 43.6807H96.1533L94.0068 43.9258L91.5537 44.5386L90.1738 44.9062L89.7139 44.5386L89.8672 43.9258L90.6338 43.313L92.9336 42.4551L95.3867 41.8423H96L95.8467 41.2295L95.6934 40.8618L95.2334 40.7393L94.1602 39.146L93.3936 39.3911L92.4736 39.8813H91.0938L90.3271 39.7588L89.8672 41.3521L89.1006 42.5776H88.7939V42.8228L87.874 42.9453L86.1875 41.9648L85.7275 41.7197L85.4209 42.8228L84.6543 44.6611L83.8877 46.7446L82.8145 48.583L81.8945 49.8086L81.1279 50.2988L80.208 50.0537L79.1348 49.1958L78.8281 49.0732L78.6748 50.6665L77.6016 55.4463L77.2949 58.5103V60.7163H76.9883L75.915 59.123L75.6084 58.2651L73.6152 57.8975L71.7754 57.1621L70.8555 56.5493L69.4756 55.0786L68.5557 53.2402L68.0957 51.4019V49.5635L68.709 47.48L69.6289 46.1318L70.7021 45.1514L71.0088 45.0288L71.3154 44.6611L71.9287 45.8867L73.002 47.3574L73.7686 47.9702H74.3818L74.8418 48.0928L75.1484 50.6665L75.4551 52.0146L76.835 51.647L77.4482 50.0537L77.9082 48.7056L78.0615 47.2349L78.8281 47.6025L79.9014 47.48L80.8213 46.6221L82.2012 44.6611L83.1211 43.0679L84.041 40.7393L84.6543 38.9009L84.9609 39.2686L85.2676 40.1265L85.8809 40.4941L86.9541 40.3716L87.874 39.2686L88.4873 37.9204L88.6406 37.1851Z" fill="#D76339"/>
    <path d="M84.3477 192.589H86.4941L91.8604 193.08L94.4668 193.202L97.2266 193.447L100.6 193.692V195.041L99.833 200.801L99.373 205.09L98.9131 207.296L98.6064 210.728L97.9932 215.018L97.6865 217.959L97.0732 218.694L95.8467 218.939L93.2402 219.185L88.0273 219.062L86.8008 218.817L84.8076 218.204L84.6543 217.836H86.4941L88.9473 217.591L90.7871 217.101L92.0137 216.366L92.7803 215.14L93.3936 212.444L94.0068 208.277L94.9268 200.065L95.0801 198.104L89.1006 197.247L84.6543 196.389L84.3477 196.266V192.589Z" fill="#22333A"/>
    <path d="M107.499 152.635H107.959L108.572 156.68L108.726 159.621L109.799 170.284L111.792 190.628V191.854H109.799L105.046 191.609L103.819 191.486V190.261L105.353 174.083L105.659 170.529L105.812 167.71L106.272 164.401L106.579 160.111L107.039 156.189L107.346 152.758L107.499 152.635Z" fill="#939597"/>
    <path d="M157.481 139.399L158.248 139.521L159.015 141.115L159.935 143.934L160.241 145.404L160.395 147.488L160.241 149.326L159.475 151.41L158.555 152.88L157.328 153.616L156.255 153.738L155.642 153.371L154.108 153.738L151.962 154.841L151.042 155.454H150.275L149.662 154.841V153.248L150.429 150.307L150.582 148.713L150.275 147.243L149.662 145.772L149.202 145.404L149.049 146.63L148.436 148.346L147.822 149.081L146.902 149.449H145.982L145.369 148.958L145.982 146.017L146.136 141.973L147.209 139.889L150.582 140.134H151.962L154.722 139.889L157.481 139.399Z" fill="#DE8859"/>
    <path d="M134.637 192.222H135.25L135.403 192.957L135.557 196.266L135.863 200.065L136.17 204.232L136.937 212.812L137.243 215.753V217.469L136.17 217.959L134.33 218.817L132.95 219.062H129.577L125.131 218.694V218.449L123.598 218.327L123.291 218.082L122.831 215.14L122.524 213.302L122.064 211.096L121.758 209.38L120.685 203.252L120.225 200.311L119.458 196.511L119.151 194.55V193.447L123.598 193.08L126.204 192.957L128.504 192.712L134.637 192.222ZM132.184 197.859L127.737 198.227L121.145 198.595L120.991 198.717L121.145 200.678L122.678 210.238L123.751 216.243L124.211 217.591L125.438 217.959L127.737 218.327L129.117 218.449H132.03L133.257 217.714L134.177 216.733L134.79 215.63V212.934L133.717 203.252L132.95 197.982L132.184 197.859Z" fill="#24353C"/>
    <path d="M122.371 39.5137L123.751 39.8813L125.744 40.3716L126.664 40.4941H130.344L131.724 39.8813L132.03 39.7588L131.877 40.3716V41.4746L132.337 42.4551L132.95 42.8228L133.87 42.5776L134.483 46.2544L135.557 49.3184L137.09 52.5049L138.47 55.2012L139.083 55.4463L139.85 54.5884L140.31 52.6274L141.843 52.3823L142.763 51.2793L143.376 50.0537L143.529 49.4409L143.836 49.9312L145.062 50.6665L145.829 51.4019L146.596 52.75L147.056 54.4658V55.5688L146.596 57.4072L145.829 59.2456L144.756 60.5938L143.376 61.8193L141.843 62.6772L140.31 63.29L138.93 63.5352H136.477L135.403 63.4126L134.023 64.7607L133.41 65.3735H133.104L133.41 64.7607L134.177 63.6577L134.943 61.084L135.403 58.6328V55.9365L134.943 52.75L133.87 48.7056L132.644 44.6611L131.57 44.9062H130.19L129.424 44.416V43.0679L130.19 41.5972L127.584 42.3325L126.051 42.4551L124.671 42.0874L123.444 41.5972V41.1069L122.678 41.2295L122.218 41.5972L121.451 41.4746L120.378 41.1069L120.838 40.7393L121.911 40.1265L122.371 39.5137Z" fill="#D76339"/>
    <path d="M101.213 74.1978H101.826L102.133 75.6685L99.2197 76.894L98.1465 77.5068H97.8398V77.752L96.6133 78.6099L95.54 79.4678L94.4668 80.8159L94.0068 81.9189L93.7002 83.1445L93.2402 84.125L92.9336 85.8408V90.1304L93.2402 93.562L93.7002 94.7876L93.8535 99.3223L94.1602 101.773L94.4668 110.353L94.6201 112.068L94.7734 115.99L95.54 116.113L96.7666 116.848L97.6865 117.951L98.1465 118.932V121.138L97.6865 122.118L96.6133 123.466L95.3867 124.079L94.4668 124.324H93.2402L91.8604 123.834L90.7871 122.854L89.5605 121.138L89.4072 120.647V119.544L89.8672 118.564L90.9404 116.971L92.0137 116.235L92.627 115.99V114.274L92.3203 108.392L92.167 108.024L92.0137 103.857L91.5537 98.5869L91.4004 95.5229L91.2471 95.4004L90.6338 90.0078V85.7183L91.2471 83.2671L92.167 80.8159L93.0869 79.3452L94.6201 77.752L95.8467 76.7715L97.9932 75.5459L99.833 74.688L101.213 74.1978Z" fill="#3D4F75"/>
    <path d="M85.4209 218.327L87.1074 218.817L88.0273 218.939L93.2402 219.062L96.3066 218.817L96.7666 221.391L97.2266 223.842V225.558L96.9199 226.17L95.54 226.906L92.3203 228.131L89.1006 229.847L86.8008 230.705L82.6611 231.686L79.2881 232.298L77.9082 232.421H75.6084L73.6152 232.176L71.6221 231.563L70.5488 230.828L70.3955 229.97L72.082 230.828L73.4619 231.195L75.6084 231.44H80.3613L83.8877 230.705L85.2676 230.46L84.6543 228.376L83.7344 226.538L82.6611 225.19L81.2812 224.087L79.748 223.352L78.6748 222.984L77.1416 222.739V222.494L77.9082 222.126H79.5947L81.2812 222.616L82.6611 223.352L83.8877 224.455L84.1943 224.822H84.501L84.3477 224.087L83.4277 223.106L81.8945 222.249L79.4414 221.513V221.268L80.8213 221.023L82.3545 221.146L84.3477 222.003L85.4209 222.861L86.0342 223.597V223.842H86.6475L86.3408 222.861L85.2676 221.881L83.7344 221.023L82.6611 220.655L81.7412 220.533V220.165H83.5811L85.1143 220.533L86.6475 221.268L87.7207 222.249L88.1807 222.861H88.4873L88.334 222.003L86.8008 220.655L85.1143 219.92L83.5811 219.552L83.7344 219.185L85.2676 218.572L85.4209 218.327Z" fill="#B3C3CC"/>
    <path d="M101.366 74.0752L102.133 74.1978L102.746 74.4429L105.046 74.688H109.032L111.332 74.4429H112.405V74.0752H114.705V74.1978H112.559L112.865 75.3008V76.1587L114.398 76.2812L114.245 76.894L113.019 78.1196L111.025 80.5708L109.032 83.2671L107.192 85.8408L105.046 89.0273L104.893 89.2725H104.433L104.126 88.6597L103.513 85.9634L102.746 83.3896V82.7769H102.439L101.826 80.3257L101.366 79.3452L101.213 78.1196L102.286 77.752L102.133 75.9136L101.979 75.4233L101.826 74.1978L101.366 74.0752Z" fill="#DD895B"/>
    <path d="M43.2578 90.0078L44.1777 90.2529L45.4043 91.1108L46.4775 92.0913L47.2441 93.3169L48.0107 95.4004L48.624 97.9741V98.2192L50.0039 98.5869L51.9971 99.1997L52.1504 99.4448L50.3105 102.999L48.9307 105.45H48.3174L46.0176 104.102L45.0977 103.612L44.6377 103.244L43.7178 102.754L42.9512 101.896L42.1846 100.18L41.8779 99.1997L41.5713 96.5034L39.8848 94.7876L38.5049 93.562L37.585 92.3364L37.4316 92.0913V91.356L37.7383 91.1108L39.2715 91.2334L40.8047 91.8462L43.4111 93.0718L43.7178 93.1943L43.2578 90.7432V90.0078Z" fill="#DE895A"/>
    <path d="M76.9883 222.616L78.9814 222.984L80.8213 223.719L82.3545 224.822L83.2744 225.68L84.3477 227.396L85.1143 229.357L85.2676 230.46L81.7412 231.318L80.3613 231.563H75.6084L72.8486 231.195L71.0088 230.46L70.5488 230.092L70.2422 230.215V228.131L70.7021 226.906L71.0088 226.416H71.3154L71.6221 225.925L72.6953 225.067L73.3086 224.7H73.6152V224.455L76.375 222.861L76.9883 222.616Z" fill="#D1D4D5"/>
    <path d="M90.0205 85.8408L90.1738 86.3311L89.1006 89.395L88.1807 92.459L87.4141 96.626L86.6475 99.3223L85.4209 104.96L84.6543 109.617L84.041 113.784L82.0479 115.5L80.9746 116.48L79.9014 117.338L78.3682 118.319L76.835 119.054H75.7617L72.542 118.319L67.4824 116.726L64.416 115.623L60.583 114.152L56.29 112.436L56.75 112.313L59.9697 113.539L62.4229 114.52L67.7891 116.48L72.082 117.829L73.3086 118.196L74.2285 118.074L75.6084 117.216L77.2949 115.5L78.6748 113.662L79.9014 111.701L81.1279 109.25L82.9678 104.837L84.8076 99.5674L86.1875 95.4004L87.4141 92.3364L88.7939 88.5371L89.8672 86.0859L90.0205 85.8408Z" fill="#D2D4D5"/>
    <path d="M124.211 218.327L125.131 218.449V218.694L128.351 218.817L129.577 218.939H132.95L134.33 218.694L135.097 218.449L136.017 220.778L137.396 225.558V226.538L136.323 225.803L134.33 224.945L133.41 224.7L132.337 224.577H130.037L128.197 225.067L126.204 225.925L124.824 227.028L124.058 227.886H123.904V226.661L124.364 221.636L124.671 218.572L124.211 218.327Z" fill="#B5C4CD"/>
    <path d="M88.6406 37.1851L89.2539 37.4302L90.7871 38.1655L92.3203 38.2881L93.5469 38.043L94.4668 37.6753H94.9268L95.54 38.7783L96.6133 39.6362L98.2998 40.3716L98.9131 40.4941H101.826L104.433 39.8813L105.812 39.2686L106.579 39.3911L108.112 40.0039L110.105 40.1265L111.485 39.7588L112.405 39.2686L113.019 39.8813L114.705 40.8618L116.238 41.3521L116.085 41.5972L114.092 41.7197L113.019 40.7393L112.559 40.4941L111.792 40.6167L110.565 41.1069L109.799 41.2295H108.726L107.346 40.7393L106.579 40.3716L105.506 40.6167L103.359 41.4746L102.439 41.7197H101.826L102.593 42.4551L102.439 43.313L101.979 44.416L101.366 44.9062L100.6 44.6611L99.0664 43.9258L98.1465 43.6807H96.1533L94.0068 43.9258L91.5537 44.5386L90.1738 44.9062L89.7139 44.5386L89.8672 43.9258L90.6338 43.313L92.9336 42.4551L95.3867 41.8423H96L95.8467 41.2295L95.6934 40.8618L95.2334 40.7393L94.1602 39.146L93.3936 39.3911L92.4736 39.8813H91.0938L90.3271 39.7588L89.8672 41.3521L89.1006 42.5776H88.7939V42.8228L87.874 42.9453L86.1875 41.9648L85.5742 41.8423H84.9609L84.8076 41.5972L85.1143 40.7393L86.9541 40.3716L87.874 39.2686L88.4873 37.9204L88.6406 37.1851Z" fill="#D66239"/>
    <path d="M32.5254 79.8354L32.832 79.958L31.6055 80.3257L30.3789 80.5708L28.8457 80.6934L27.6191 80.9385L25.626 81.3062L25.4727 81.4287L23.7861 81.5513L22.2529 81.9189L20.5664 82.2866L18.8799 82.4092L17.6533 82.7769H16.7334L16.5801 83.6348H18.7266L18.8799 85.1055L15.8135 85.4731L11.2139 86.2085V87.189L12.7471 96.5034V97.2388L11.6738 97.3613L9.68066 97.1162V97.729H9.52734L9.06738 93.9297L7.84082 85.3506L7.6875 83.8799L8.4541 83.6348L15.8135 82.5317L16.1201 82.1641L24.2461 80.9385L32.5254 79.8354Z" fill="#7A9EA8"/>
    <path d="M129.73 79.1001H129.884V80.5708L129.271 86.5762L129.117 87.6792V90.498L129.424 94.9102L129.73 97.6064V98.7095L129.424 98.5869L128.964 97.2388L127.737 95.2778L127.277 94.665L126.051 93.8071L124.211 93.0718L124.058 86.8213L123.904 86.6987V83.7573L125.438 82.6543L128.044 80.5708L129.117 79.5903L129.73 79.3452V79.1001Z" fill="#FBFBFB"/>
    <path d="M116.852 46.6221L118.385 46.7446L119.918 47.3574L120.991 48.2153L121.758 49.5635L122.371 51.2793L122.524 52.0146V54.2207L121.911 56.0591L120.991 57.2847L120.225 58.02L118.385 58.7554L117.312 58.8779H115.012L115.318 58.3877L116.698 57.6523L117.618 56.1816L118.078 54.5884V52.9951L117.618 51.4019L116.852 50.2988L115.932 49.686H114.245L113.019 50.0537L112.099 50.7891H111.792L112.099 49.9312L113.479 48.0928L114.705 47.2349L116.238 46.7446L116.852 46.6221Z" fill="#F8F8F8"/>
    <path d="M40.8047 78.9775H41.7246L42.1846 82.6543L43.1045 88.9048L43.7178 92.459V93.1943L42.7979 92.9492L40.8047 91.9688L40.0381 91.4785H40.3447L39.7314 86.5762L39.1182 82.2866L36.5117 82.5317L33.752 82.8994L33.1387 83.022L33.4453 85.5957L33.5986 86.0859V87.0664L31.9121 87.4341L29.7656 87.6792L27.7725 87.8018L28.2324 87.5566L32.3721 86.9438H33.1387L32.5254 84.125L32.6787 81.5513L33.292 81.4287V80.0806L34.3652 79.8354L40.8047 78.9775Z" fill="#7B9EA8"/>
    <path d="M92.9336 115.99H95.2334L96.6133 116.726L97.5332 117.706L98.1465 118.932V121.138L97.6865 122.118L96.6133 123.466L95.3867 124.079L94.4668 124.324H93.2402L91.8604 123.834L90.7871 122.854L89.5605 121.138L89.4072 120.647V119.544L89.8672 118.564L90.9404 116.971L92.0137 116.235L92.9336 115.99Z" fill="#333B40"/>
    <path d="M92.9336 48.0928H94.6201L95.8467 48.7056L96.7666 49.686L97.2266 50.6665L97.3799 52.2598L97.2266 53.853L96.6133 55.2012L95.54 56.4268L94.4668 57.0396L93.0869 57.1621L91.5537 56.5493L90.7871 55.9365L90.1738 54.8335L90.0205 54.3433V52.9951L90.6338 52.0146L90.9404 51.8921L90.7871 50.4214L91.2471 48.9507L91.8604 48.4604L92.9336 48.0928Z" fill="#552700"/>
    <path d="M114.245 49.5635H115.932L117.158 50.4214L117.925 51.7695L118.231 52.9951V54.5884L117.618 56.5493L116.852 57.6523L115.625 58.3877L114.858 58.7554H113.938L113.019 58.2651L111.945 57.2847L111.332 55.814V51.4019L111.485 51.0342L112.712 50.1763L113.632 49.686L114.245 49.5635Z" fill="#562700"/>
    <path d="M95.54 45.8867H96.7666L98.2998 46.2544L99.373 46.9897L100.293 48.2153L100.906 50.0537L101.06 51.1567V52.6274L100.753 54.3433L99.6797 56.0591L98.9131 56.6719L97.6865 57.2847L96.9199 57.5298H94.0068L93.7002 57.4072L93.8535 57.0396L94.9268 56.6719L95.6934 56.0591L96.6133 54.9561L97.0732 53.853L97.2266 52.0146L97.0732 50.6665L96.46 49.5635L95.54 48.583L94.6201 48.2153H92.9336L92.0137 48.3379L92.3203 47.7251L93.5469 46.7446L94.7734 46.1318L95.54 45.8867Z" fill="#F7F7F8"/>
    <path d="M30.5322 83.2671H32.2188L32.832 84.6152L32.9854 85.7183L33.1387 85.9634V86.9438L30.0723 87.4341L26.8525 87.6792L21.793 88.292L20.1064 88.4146L19.7998 87.5566L19.4932 85.8408V84.9829L20.873 84.6152L29.7656 83.3896L30.5322 83.2671Z" fill="#FAFAFA"/>
    <path d="M117.005 45.8867L118.538 46.0093L119.918 46.4995L121.298 47.3574L122.371 48.7056L122.984 49.686L123.598 51.7695L123.751 52.9951L123.444 54.9561L122.524 56.7944L121.604 58.1426V58.5103L123.138 59.0005V59.123H121.911L121.145 59.0005V59.2456H120.838L121.145 59.7358V60.7163L119.611 61.9419L118.538 62.3096L117.465 62.4321L116.392 62.3096L115.932 61.8193L115.625 60.5938L115.165 60.4712L114.092 60.7163L113.632 60.5938V60.3486H113.325L113.479 59.6133L113.785 59.123V58.8779L113.172 58.6328L112.099 57.8975L111.485 57.0396L111.179 56.4268L110.872 54.9561L111.025 52.1372L111.332 50.5439L111.485 50.2988H111.792V49.686H112.099L112.252 49.1958L113.019 47.9702L114.092 47.1123L115.165 46.377L116.238 46.0093L117.005 45.8867ZM116.852 46.6221L115.318 46.9897L113.938 47.7251L112.865 48.8281L111.945 50.0537L111.792 50.9116L111.485 51.0342L111.332 51.4019V55.814L111.945 57.2847L113.325 58.5103L113.938 58.7554H114.858L115.012 58.8779H117.312L118.845 58.6328L120.378 57.8975L121.604 56.5493L122.218 55.3237L122.524 54.2207V52.0146L121.911 49.9312L121.145 48.4604L120.071 47.48L118.845 46.8672L117.618 46.6221H116.852Z" fill="#D7653B"/>
    <path d="M136.323 52.2598H136.63L137.243 52.75L138.47 55.2012L139.083 55.4463L139.85 54.5884L140.31 52.6274L140.463 52.8726L141.843 52.6274H143.069L144.296 53.3628L144.909 54.8335V56.4268L144.296 56.6719L143.376 56.1816L143.223 56.6719L142.916 57.1621L143.069 58.7554L142.763 59.4907H142.456L141.996 59.981L140.156 59.123L139.543 58.7554L139.236 58.8779L139.083 59.3682V61.084L138.316 61.6968L137.703 61.5742L137.55 60.5938L137.09 60.4712L136.937 59.8584L137.243 57.4072L136.937 55.5688L136.63 54.5884V53.2402H136.323L136.17 52.75L136.323 52.2598Z" fill="#F6B38E"/>
    <path d="M122.678 94.5425L124.364 94.665L125.591 95.4004L126.357 96.1357L127.124 97.4839L127.584 98.832L127.891 99.5674L128.197 101.406L127.431 101.038L127.277 100.793L126.817 100.67L126.664 100.425L124.518 99.8125L123.751 99.6899H121.145L119.765 100.058L118.385 100.67L117.158 101.406V100.303L117.925 98.4644L118.845 96.9937H119.151V96.626H119.458L119.765 96.1357L121.298 94.9102L122.678 94.5425Z" fill="#D1D3D4"/>
    <path d="M24.0928 92.0913L24.3994 92.2139L26.2393 99.5674L26.5459 100.058L26.3926 99.1997V97.9741L27.0059 98.0967L27.3125 99.1997L27.6191 99.0771L28.3857 97.1162L28.999 96.9937L29.9189 98.5869L30.3789 99.8125H30.6855V98.4644L30.8389 96.9937L30.9922 96.7485L31.6055 96.8711L32.2188 98.2192L32.3721 98.4644L32.9854 96.5034L33.1387 96.3809H37.8916L38.0449 96.8711L37.8916 96.9937L33.5986 97.1162L33.292 97.8516L32.9854 99.3223L32.3721 99.8125L31.9121 99.4448L31.6055 98.7095L31.4521 98.2192H31.1455L31.2988 98.4644V99.8125L31.1455 101.528L30.6855 101.406L29.459 99.3223L28.8457 97.9741L28.2324 99.3223L27.9258 100.425H27.4658V100.058H27.1592L27.0059 100.67V102.999H26.5459L26.2393 102.754L24.5527 96.0132L24.0928 94.5425V96.1357L23.7861 100.67L23.6328 102.264L23.0195 102.019L21.6396 99.6899L21.1797 102.999L20.873 103.489L20.4131 103.244L19.3398 100.18L18.1133 96.9937L17.96 101.528H17.3467V94.5425H17.96L19.9531 99.8125L20.7197 101.651L20.873 99.0771L21.0264 98.2192L21.6396 98.3418L22.8662 100.425L23.0195 100.18L23.7861 92.8267L24.0928 92.0913Z" fill="#CB5D3A"/>
    <path d="M93.8535 81.9189H94.0068L94.1602 82.7769L95.3867 84.7378L97.0732 87.6792L98.6064 90.3755L98.2998 90.9883L94.7734 93.8071L93.8535 94.7876L93.3936 94.4199L93.0869 93.562L92.7803 90.1304V85.8408L93.2402 83.6348L93.7002 82.6543L93.8535 81.9189Z" fill="#F9FAFA"/>
    <path d="M96.1533 44.9062L97.6865 45.0288L99.0664 45.6416V45.8867L99.6797 46.1318L100.6 47.2349L100.906 47.9702V48.9507L101.213 50.1763L100.906 50.4214L99.9863 47.9702L99.0664 46.8672L97.9932 46.2544L96.7666 46.0093H95.54L94.0068 46.6221L92.4736 47.7251L92.0137 48.3379L92.3203 48.4604L91.5537 48.7056L91.0938 49.686L90.9404 51.1567L91.0938 52.0146H90.6338L90.3271 52.6274L90.1738 52.9951V54.3433L90.7871 55.814L91.5537 56.4268L93.0869 57.0396L93.7002 57.1621V57.4072H96.9199L99.373 56.4268L100.446 54.7109H100.753L99.833 56.917L99.373 57.1621L99.0664 57.6523H98.7598L98.9131 58.02L99.833 58.5103V58.7554L98.9131 58.6328L97.0732 58.1426L96.9199 59.4907L95.8467 59.8584L94.4668 60.1035L94.3135 60.2261H92.9336L91.707 59.7358V59.4907L91.0938 59.3682L91.4004 58.3877L90.1738 58.7554L89.8672 58.6328L89.1006 58.5103L89.4072 58.3877L89.7139 57.6523V57.4072H87.1074V57.1621L89.2539 56.5493H89.5605V54.8335L89.7139 52.5049L90.1738 50.5439L90.9404 49.0732L91.8604 47.7251L93.2402 46.377L94.1602 45.519L95.2334 45.0288L96.1533 44.9062Z" fill="#D76339"/>
    <path d="M128.657 225.312H129.884L131.11 226.17L131.57 227.151V228.254L130.804 229.479L129.577 230.337L128.811 230.46V230.705H128.504L128.351 231.195L128.197 231.318V232.543L127.277 232.421L125.744 231.808L124.978 231.318L124.518 230.46L124.671 230.092L124.518 229.602V228.131L125.744 226.783L126.971 226.048L128.351 225.435L128.657 225.312Z" fill="#FCFCFC"/>
    <path d="M114.705 64.5156H115.472L115.012 65.6187L110.259 67.3345L106.119 68.4375L102.899 68.9277L100.446 69.0503L98.9131 68.4375L97.5332 67.2119L97.3799 66.8442L97.5332 66.7217L101.06 66.5991L105.659 66.2314L109.952 65.4961L114.245 64.6382L114.705 64.5156Z" fill="#F6F6F6"/>
    <path d="M80.668 90.0078L80.8213 90.2529L79.1348 92.8267L77.9082 94.665L76.375 97.2388L74.3818 100.916L73.002 103.367L72.082 105.573V108.392L72.542 110.107L73.3086 112.804L73.4619 114.152H73.1553L72.542 112.191L71.6221 109.495L70.8555 107.901L69.9355 106.676L69.1689 106.063V105.818L68.5557 105.573L66.8691 104.592L64.2627 103.367L60.7363 101.896L54.2969 99.3223L54.6035 99.1997L58.4365 100.548L66.2559 103.612L69.3223 104.715L69.7822 104.837L72.082 101.651L73.9219 99.3223L76.0684 96.3809L78.3682 93.0718L80.5146 90.1304L80.668 90.0078Z" fill="#D2D4D5"/>
    <path d="M145.216 219.92H146.442L147.669 220.288L148.742 221.146L149.202 222.003V223.474L148.589 224.332L148.742 224.945L149.815 225.803V226.17L149.049 226.048L147.822 225.19V224.945L147.056 225.312L145.062 225.435L143.989 225.067L143.069 224.455L142.456 223.474V221.881L143.069 220.9L144.143 220.165L145.216 219.92Z" fill="#F6F7F7"/>
    <path d="M74.6885 224.332L76.0684 224.455L76.9883 224.945L77.6016 226.048V227.519L77.1416 228.376L76.375 229.234L74.8418 229.847L73.7686 230.337H72.2354L71.6221 229.97L70.8555 229.234L70.7021 228.744V227.641L71.4688 226.293L72.6953 225.312L73.4619 224.822L74.6885 224.332Z" fill="#FBFBFB"/>
    <path d="M84.6543 38.9009L84.9609 39.2686L85.2676 40.1265L85.8809 40.4941V40.7393H85.1143L84.9609 41.7197H85.5742L85.7275 42.0874L84.6543 44.6611L83.8877 46.7446L82.8145 48.583L81.8945 49.8086L81.1279 50.2988L80.208 50.0537L79.1348 49.1958L78.8281 49.0732V49.8086H78.5215L78.3682 50.9116L78.0615 51.647L77.9082 51.4019L77.4482 51.5244V51.1567L77.1416 51.2793L77.7549 49.0732L77.9082 48.7056L78.0615 47.2349L78.8281 47.6025L79.9014 47.48L80.8213 46.6221L82.2012 44.6611L83.1211 43.0679L84.041 40.7393L84.6543 38.9009Z" fill="#D66239"/>
    <path d="M84.3477 67.3345L85.1143 67.5796L86.4941 68.3149L88.1807 69.1729L90.4805 70.2759L92.167 71.0112L95.2334 71.9917L97.9932 72.6045L100.14 72.8496L102.593 73.0947L103.666 73.2173H107.806L112.865 72.8496H114.245L114.398 73.2173L112.712 73.7075L112.405 74.4429L109.032 74.8105H105.046L102.746 74.5654L101.979 74.1978L98.1465 73.4624L94.6201 72.6045L91.8604 71.624L87.5674 69.5405L85.7275 68.4375L84.3477 67.5796V67.3345Z" fill="#D7653A"/>
    <path d="M120.225 40.9844L122.064 41.5972L123.751 42.5776L124.518 43.313L124.824 44.1709L124.518 44.6611L123.751 44.5386L121.911 43.4355L120.838 43.0679H119.305L116.545 43.6807L114.092 44.6611H113.172L112.405 44.1709L111.945 43.313V42.4551L112.712 42.0874L114.398 41.5972L116.085 41.4746L116.392 41.3521L118.538 41.2295L120.071 41.1069L120.225 40.9844Z" fill="#562700"/>
    <path d="M98.9131 41.3521H100.14L101.673 41.8423L102.593 42.4551L102.439 43.313L101.979 44.416L101.366 44.9062L100.6 44.6611L99.0664 43.9258L98.1465 43.6807H96.1533L94.0068 43.9258L91.5537 44.5386L90.1738 44.9062L89.7139 44.5386L89.8672 43.9258L90.6338 43.313L92.9336 42.4551L96 41.7197L98.9131 41.3521Z" fill="#562700"/>
    <path d="M93.2402 116.235L94.6201 116.358L95.54 116.726L96.6133 117.583L97.2266 118.687V121.138L96.7666 122.118L96.1533 122.854L94.7734 123.834H92.9336L91.707 123.344L91.5537 122.976L91.0938 122.854V122.486L93.5469 121.996L94.4668 121.505L94.9268 120.77V119.544L94.3135 118.687L93.7002 118.319L92.0137 117.829H90.4805L90.6338 117.338L92.167 116.48L93.2402 116.235Z" fill="#939597"/>
    <path d="M96.6133 225.19H97.2266L97.0732 226.048L95.8467 226.783L92.3203 228.131L89.1006 229.847L86.8008 230.705L82.6611 231.686L79.2881 232.298L77.9082 232.421H75.6084L73.6152 232.176L71.6221 231.563L70.5488 230.828L70.3955 229.97L72.082 230.828L73.4619 231.195L75.6084 231.44H80.3613L83.8877 230.705L86.3408 229.97L88.4873 228.989L90.1738 228.009L92.167 226.906L94.3135 225.925L96.6133 225.19Z" fill="#949698"/>
    <path d="M72.2354 47.48H73.1553L73.9219 48.0928L74.6885 47.9702L74.8418 48.0928L75.1484 50.6665L75.4551 52.0146L76.0684 51.8921V52.8726H76.375V53.1177L76.6816 53.2402H76.2217V53.4854H75.7617L75.4551 54.9561L74.6885 56.0591H74.2285L74.3818 54.9561L74.6885 54.0981L74.2285 53.9756L72.542 53.1177L71.3154 51.1567L71.9287 50.9116L72.082 50.1763V49.5635L71.7754 49.4409L71.0088 49.686L70.7021 49.8086L70.5488 49.0732L71.4688 47.9702L72.2354 47.48Z" fill="#D35838"/>
    <path d="M157.481 139.399L158.248 139.521L158.708 140.379L158.555 140.992L155.948 141.728L152.882 142.218H150.735L147.669 141.973L146.596 141.605L146.749 140.747L147.209 139.889L150.582 140.134H151.962L154.722 139.889L157.481 139.399Z" fill="#D7653A"/>
    <path d="M95.6934 193.57H99.0664L100.6 193.692V195.041L100.293 197.614L99.9863 198.227L98.1465 198.35L95.3867 198.104L95.2334 197.614L95.54 195.286L95.6934 193.57Z" fill="#3A1905"/>
    <path d="M143.529 49.4409L143.836 49.9312L145.062 50.6665L145.829 51.4019L146.596 52.75L147.056 54.4658V55.5688L146.596 57.4072L145.829 59.2456L144.756 60.5938L143.989 61.3291L143.376 61.2065L143.529 60.4712L144.603 58.6328L144.909 58.1426L145.062 57.1621V55.4463L144.756 54.3433L143.989 53.2402L143.069 52.75H141.843L141.536 52.8726H140.463V52.6274L141.843 52.3823L142.763 51.2793L143.376 50.0537L143.529 49.4409Z" fill="#DE8859"/>
    <path d="M103.819 57.4072L103.973 57.6523L103.513 58.6328L103.359 59.4907H105.046L105.353 59.6133V59.8584L101.979 59.981V60.2261L101.366 60.4712L100.906 61.084L101.06 61.5742L103.819 61.8193L105.966 61.4517L107.346 61.2065L107.499 61.9419L107.346 62.7998L106.732 63.5352L106.272 63.7803L107.039 63.9028L106.426 64.3931L104.739 64.7607H102.899L101.673 64.2705L100.906 63.7803L99.9863 62.4321V61.3291L100.6 60.5938L101.366 59.981L102.439 59.3682L102.899 58.6328H103.206L103.666 57.5298L103.819 57.4072Z" fill="#D76339"/>
    <path d="M121.758 82.1641H121.911L122.218 84.9829V91.4785H121.604L117.771 88.4146L117.312 87.9243L117.618 87.4341L118.691 86.4536L119.918 85.4731L120.991 84.4927L121.758 83.8799V82.1641Z" fill="#CED0D2"/>
    <path d="M128.657 106.553L128.964 106.676L129.117 107.901L129.424 107.043L129.73 106.553L130.19 106.676L130.037 110.598L129.73 113.662L129.117 117.093L128.504 119.054L127.584 120.525L126.971 120.893H126.664V121.138L124.364 121.75L124.824 120.647L126.204 120.035L126.817 119.299L127.584 117.093L128.197 113.784L128.504 111.088L128.657 106.553Z" fill="#64757D"/>
    <path d="M114.245 104.715H114.398L114.552 106.186L114.705 106.308H116.085L115.625 109.372L115.472 110.72V116.235L115.778 118.319L116.238 119.299L116.698 119.79L117.158 119.912V121.138L116.392 120.893L115.778 120.647L115.012 119.912L114.398 118.809L114.092 117.338L113.938 115.745V111.701L114.245 107.411V104.715Z" fill="#6B7B81"/>
    <path d="M123.751 230.337L125.284 231.563L126.664 232.298L128.197 232.789L129.884 233.034H132.49L135.097 232.543L136.937 231.931L138.316 230.95L138.47 231.44L137.856 232.421L136.477 233.524L135.25 234.014L132.95 234.504H129.424L126.204 233.892L124.824 232.911L124.211 231.808L123.751 230.337Z" fill="#959799"/>
    <path d="M95.3867 39.146L96 39.3911L98.2998 40.3716L98.9131 40.4941H101.826L104.433 39.8813L105.812 39.2686L106.579 39.3911L108.112 40.0039L110.105 40.1265L111.485 39.7588L112.405 39.2686L113.019 39.8813L114.705 40.8618L116.238 41.3521L116.085 41.5972L114.092 41.7197L113.019 40.7393L112.559 40.4941L111.792 40.6167L110.565 41.1069L109.799 41.2295H108.726L107.346 40.7393L106.579 40.3716L105.506 40.6167L103.359 41.4746L102.439 41.7197H101.826L101.673 41.9648L100.14 41.4746H97.8398L97.3799 41.2295V40.9844H97.0732V40.6167L96.3066 40.4941L95.8467 40.249V40.0039L95.54 39.8813L95.3867 39.146Z" fill="#D35938"/>
    <path d="M31.2988 81.6738H32.2188L32.3721 83.1445L25.4727 84.125L20.1064 84.8604H19.3398L19.0332 83.8799V83.5122L22.8662 82.8994L30.5322 81.7964L31.2988 81.6738Z" fill="#7C9DA7"/>
    <path d="M71.1621 44.6611L71.4688 45.1514L72.6953 46.9897V47.2349L71.6221 47.6025L70.7021 48.7056L70.0889 50.0537L69.9355 51.2793V54.3433L69.3223 54.8335L68.5557 53.2402L68.0957 51.4019V49.5635L68.709 47.48L69.6289 46.1318L70.7021 45.1514L71.0088 45.0288L71.1621 44.6611Z" fill="#DE8859"/>
    <path d="M93.7002 96.7485H94.0068L94.6201 98.0967L97.5332 103.122L99.373 106.186L101.06 109.25L102.133 110.965L101.979 111.456L99.9863 108.637L98.2998 106.676L96.9199 104.837L94.9268 102.264L94.6201 101.528H94.3135L94.0068 101.773L93.7002 99.3223V96.7485Z" fill="#D0D2D3"/>
    <path d="M107.499 152.635H107.959L108.572 156.68V159.253L108.419 159.866H108.112L107.959 161.337L107.039 165.504L106.579 167.342L106.272 168.936L105.966 169.426V166.484L106.272 164.401L106.579 160.111L107.039 156.189L107.346 152.758L107.499 152.635Z" fill="#3A2214"/>
    <path d="M17.5 94.4199L17.96 94.5425L19.9531 99.8125L20.7197 101.651L20.873 99.0771L21.0264 98.2192L21.6396 98.3418L22.8662 100.425L23.0195 100.18L23.4795 95.8906H23.7861V95.0327H23.9395V99.0771L23.6328 102.264L23.0195 102.019L21.6396 99.6899L21.1797 102.999L20.873 103.489L20.4131 103.244L19.3398 100.18L18.1133 96.9937L17.96 101.528H17.3467V94.5425L17.5 94.4199Z" fill="#D15F3C"/>
    <path d="M93.8535 81.9189H94.0068L94.1602 82.7769L95.3867 84.7378L97.0732 87.6792L98.6064 90.3755L98.2998 90.9883L94.7734 93.8071L93.8535 94.7876L93.3936 94.4199L93.0869 93.562L92.9336 91.356L93.2402 91.8462L93.3936 92.9492L94.4668 92.2139L95.6934 91.356L95.8467 91.1108H96.1533L96.46 90.6206L96.7666 90.2529V89.2725L95.8467 87.3115L94.6201 84.8604L93.8535 83.5122L93.5469 83.3896L93.3936 84.125L93.2402 83.6348L93.7002 82.6543L93.8535 81.9189Z" fill="#D0D2D3"/>
    <path d="M134.637 192.222H135.25L135.403 192.957V197.369L135.25 197.492L133.257 197.737H132.797L132.184 192.712L133.257 192.344L134.637 192.222Z" fill="#3A1A06"/>
    <path d="M125.744 95.8906L126.357 96.1357L127.124 97.4839L127.584 98.832L127.891 99.5674L128.197 101.406L127.431 101.038L127.277 100.793L126.817 100.67L126.664 100.425L124.518 99.8125L122.371 99.4448L123.291 98.5869L124.671 97.1162L125.744 95.8906Z" fill="#F7F7F7"/>
    <path d="M93.7002 50.1763L94.3135 50.4214L95.2334 51.2793L95.54 51.8921V53.2402L94.7734 54.4658L93.8535 55.0786H92.9336L92.167 54.7109L91.5537 53.853L91.4004 52.8726L91.707 52.0146L91.8604 51.7695L92.9336 51.4019L93.5469 50.7891L93.7002 50.1763Z" fill="#3A1701"/>
    <path d="M114.858 51.7695L115.778 52.1372L116.392 52.9951L116.545 53.4854V54.7109L115.932 55.9365L115.165 56.4268L113.938 56.5493L113.019 55.9365L112.559 55.0786L112.405 53.853L113.019 53.2402L114.092 52.8726L114.858 51.7695Z" fill="#3A1702"/>
    <path d="M90.7871 118.074H92.0137L92.7803 118.319L93.3936 118.932V119.177H93.7002V120.525L93.0869 121.505L91.8604 122.118L90.6338 121.996L89.7139 120.893L89.4072 120.647V119.544L89.8672 118.564L90.6338 118.441L90.7871 118.074Z" fill="#929497"/>
    <path d="M145.216 219.92H146.442L147.669 220.288L148.742 221.146L149.202 222.003V223.474L148.589 224.332L148.742 224.945L149.815 225.803V226.17L149.049 226.048L147.822 225.19V224.945L147.056 225.312L145.062 225.435L143.989 225.067L143.069 224.455L142.456 223.474V221.881L143.069 220.9L144.143 220.165L145.216 219.92ZM145.062 220.533L144.603 220.655V220.9H144.143V221.146H143.836L143.223 222.003V223.106L143.836 224.087L145.216 224.822H146.289L147.516 224.332L148.436 223.352V221.881L147.822 221.146L147.056 220.655L146.596 220.533H145.062Z" fill="#3F5172"/>
    <path d="M109.799 68.8052H111.639L112.405 68.9277L112.252 69.418L110.259 70.3984L108.419 70.8887L107.652 71.0112H105.659L103.359 70.7661L103.206 70.521L105.812 69.5405L107.806 69.0503L109.799 68.8052Z" fill="#D35938"/>
    <path d="M50.7705 99.0771L51.9971 99.1997L52.1504 99.4448L50.3105 102.999L48.9307 105.45H48.3174L47.3975 104.96L47.5508 104.225L48.9307 101.896L50.1572 99.9351L50.7705 99.0771Z" fill="#D7653B"/>
    <path d="M18.8799 85.228L19.1865 85.3506L19.6465 87.0664L19.9531 87.5566L20.1064 88.292L21.793 88.1694L28.0791 87.4341H28.999V87.5566L28.2324 87.6792L30.9922 87.4341H31.7588L31.1455 87.6792L24.0928 88.9048L20.2598 89.5176H19.3398L18.8799 85.7183V85.228Z" fill="#B9C6CE"/>
    <path d="M121.911 99.8125H122.984L122.371 100.058L121.758 100.18L120.685 101.161L118.538 103.244L117.158 104.837L116.545 104.96L116.392 105.45H116.238L116.392 103.367L116.545 102.509L116.852 102.141H117.158L117.465 101.651L118.385 101.038H118.691L118.845 100.67L120.685 100.058L120.838 99.9351L121.911 99.8125Z" fill="#D1D3D5"/>
    <path d="M115.012 112.068H115.165L115.318 115.745L115.778 118.319L116.238 119.299L116.698 119.79L117.158 119.912V121.138L116.392 120.893L115.778 120.647L115.012 119.912L114.398 118.809L114.245 117.093V112.926L114.398 112.436H114.858L115.012 112.068Z" fill="#3C4D73"/>
    <path d="M122.371 39.5137L123.751 39.8813L125.744 40.3716L126.664 40.4941L130.344 40.6167L130.957 41.1069L130.65 41.3521L129.117 41.4746H127.737L127.124 41.3521L126.817 41.4746H124.824L123.904 40.8618H122.984L122.371 41.5972L121.451 41.4746L120.378 41.1069L120.838 40.7393L121.911 40.1265L122.371 39.5137Z" fill="#D35838"/>
    <path d="M90.7871 117.706H92.0137L94.0068 118.319L94.9268 119.177L95.0801 119.544V120.77L94.3135 121.75L93.5469 122.118L92.0137 122.486H91.0938L91.2471 122.854L92.167 123.466L92.9336 123.711L94.1602 123.834V123.957L93.3936 124.079L94.4668 124.202V124.324H93.2402L91.8604 123.834L90.7871 122.854L89.5605 121.138V120.402L89.8672 120.893L90.6338 121.873L91.8604 121.996L92.9336 121.505L93.5469 120.525L93.7002 119.177H93.3936L92.7803 118.564V118.319L92.0137 118.196H90.7871L90.3271 118.564H90.0205L90.3271 117.829L90.7871 117.706Z" fill="#5B6F78"/>
    <path d="M96.1533 44.9062L97.6865 45.0288L99.0664 45.6416V45.8867L99.6797 46.1318L100.6 47.2349L100.906 47.9702V48.9507L101.213 50.1763L100.906 50.4214L99.9863 47.9702L99.0664 46.8672L97.9932 46.2544L96.7666 46.0093H95.54L94.0068 46.6221L92.4736 47.7251L92.0137 48.3379L92.3203 48.4604L91.2471 48.7056L91.8604 47.7251L93.2402 46.377L94.1602 45.519L95.2334 45.0288L96.1533 44.9062Z" fill="#D6663C"/>
    <path d="M121.298 94.9102L121.911 95.0327L121.451 95.8906L120.225 97.729L118.998 99.9351L119.458 100.058L117.618 101.161L117.158 101.406V100.303L117.925 98.4644L118.845 96.9937H119.151V96.626H119.458L119.765 96.1357L121.298 94.9102Z" fill="#F7F7F8"/>
    <path d="M103.819 57.4072L103.973 57.6523L103.513 58.6328L103.359 59.4907H105.046L105.353 59.6133V59.8584L101.979 59.981V60.2261L101.366 60.4712L100.753 61.2065L100.906 62.3096L101.366 62.9224V63.1675L101.979 63.29L103.206 63.6577L105.046 64.0254H106.732V64.2705L104.739 64.7607H102.899L101.673 64.2705L100.906 63.7803L99.9863 62.4321V61.3291L100.6 60.5938L101.366 59.981L102.439 59.3682L102.899 58.6328H103.206L103.666 57.5298L103.819 57.4072Z" fill="#C75432"/>
    <path d="M24.0928 92.0913L24.3994 92.2139L26.2393 99.5674L26.5459 100.058L27.0059 100.425V102.999H26.5459L26.2393 102.754L24.5527 96.0132L24.0928 94.5425V96.1357L23.6328 95.8906V94.1748L23.9395 92.2139L24.0928 92.0913Z" fill="#D3633F"/>
    <path d="M112.252 39.2686L114.398 40.7393L116.238 41.4746L116.085 41.5972L114.092 41.7197L113.019 40.7393L112.559 40.4941L111.792 40.6167L110.565 41.1069L109.799 41.2295H108.726L107.346 40.7393L106.272 40.249L106.732 40.0039L106.579 39.6362L107.499 39.7588L108.112 40.0039L110.105 40.1265L111.485 39.7588L112.252 39.2686Z" fill="#D66239"/>
    <path d="M119.305 42.9453H120.838L122.371 43.5581L124.058 44.5386L124.364 44.7837L124.211 45.2739L123.444 45.1514L122.064 44.2935L120.991 43.8032H118.385L116.852 44.0483L114.398 45.0288L113.632 45.2739L112.712 45.1514L111.945 44.416L111.792 43.8032L112.099 43.313L112.712 44.2935L113.172 44.5386H114.092L116.545 43.5581L119.305 42.9453Z" fill="#D66138"/>
    <path d="M32.5254 79.8354L32.832 79.958L31.6055 80.3257L30.3789 80.5708L28.8457 80.6934L27.6191 80.9385L25.626 81.3062L25.4727 81.4287L23.7861 81.5513L22.2529 81.9189L20.5664 82.2866L18.8799 82.4092L17.6533 82.7769H16.7334L16.5801 83.5122L16.2734 83.3896L16.5801 82.2866L16.1201 82.1641L24.2461 80.9385L32.5254 79.8354Z" fill="#919496"/>
    <path d="M23.7861 95.0327H23.9395V99.0771L23.6328 102.264L23.0195 102.019L21.6396 99.6899L21.4863 100.916L21.1797 101.651H21.0264L20.873 99.0771L21.0264 98.2192L21.6396 98.3418L22.8662 100.425L23.0195 100.18L23.4795 95.8906H23.7861V95.0327Z" fill="#C35C38"/>
    <path d="M96.1533 43.5581H98.1465L99.5264 44.0483L101.06 44.7837L101.826 44.6611L101.979 44.416L102.439 45.2739L103.053 45.0288L103.359 44.7837H103.819L103.513 45.2739L102.439 46.2544L101.979 46.4995L101.213 46.377L99.5264 45.0288L97.9932 44.2935L94.7734 43.8032V43.6807L96.1533 43.5581Z" fill="#D66238"/>
    <path d="M117.771 119.912H120.531L120.685 120.035V121.383L120.225 121.996H118.691L117.465 121.505L117.005 121.138L117.158 120.157L117.771 119.912Z" fill="#D2D4D5"/>
    <path d="M128.811 116.848L128.964 117.338L128.351 119.422L127.431 120.647L126.664 120.893V121.138L124.364 121.75L124.824 120.647L126.204 120.035L126.817 119.299L127.277 118.074H127.584L127.737 117.706L127.891 117.829L128.044 117.583H128.351V117.216H128.657L128.811 116.848Z" fill="#425276"/>
    <path d="M121.451 120.035H122.831L124.671 120.28L124.978 120.647L124.211 121.873L122.984 122.118H121.911L121.298 121.75V120.157L121.451 120.035Z" fill="#D3D5D6"/>
    <path d="M129.424 221.268H132.644L134.177 221.881L134.483 222.371V222.739H133.87V222.494L132.337 222.249L132.184 222.126H129.73L128.504 222.494L126.971 222.739V222.126L127.891 221.636L129.424 221.268Z" fill="#FAFAFA"/>
    <path d="M116.852 46.6221L118.385 46.7446L119.918 47.3574L120.991 48.2153L121.758 49.5635L121.604 49.8086L119.918 48.2153L118.538 47.7251L117.925 47.6025H116.085L114.245 48.2153L113.632 48.4604V47.9702L114.705 47.2349L116.238 46.7446L116.852 46.6221Z" fill="#D2D4D5"/>
    <path d="M129.73 222.494H132.49L134.177 222.984L134.483 223.229V223.842L133.717 223.719L132.49 223.352H129.73L127.737 223.964L127.124 223.842L127.277 223.229L127.737 222.861L129.73 222.494Z" fill="#FBFBFB"/>
    <path d="M33.1387 96.3809H37.8916L38.0449 96.8711L37.8916 96.9937L33.5986 97.1162L33.292 97.8516L32.9854 99.3223L32.3721 99.8125L31.9121 99.4448L31.4521 98.3418L32.0654 97.9741L32.3721 98.4644L32.9854 96.5034L33.1387 96.3809Z" fill="#D0613E"/>
    <path d="M130.19 219.552H131.57L133.104 219.92L133.87 220.288L134.177 220.655V221.023L132.797 220.655L131.417 220.41H129.884L127.277 221.023H126.664V220.533L127.891 220.042L130.19 219.552Z" fill="#FCFCFC"/>
    <path d="M122.984 40.7393H123.904L124.364 40.8618V41.2295L125.284 41.3521H126.817L127.277 41.2295L128.657 41.3521H129.577V41.7197L128.044 42.21L126.971 42.4551L125.284 42.3325L123.444 41.5972V41.1069L122.831 40.8618L122.984 40.7393Z" fill="#D76339"/>
    <path d="M155.488 147.243H155.795V148.958L155.182 151.777L154.262 153.371H154.568V153.616L153.188 154.229L152.729 154.474L152.269 154.351L152.882 153.616L153.495 153.125L154.568 150.674L155.488 147.243Z" fill="#D7643A"/>
    <path d="M114.705 64.5156H115.472L115.318 64.7607L114.552 65.251L111.945 65.8638L108.879 66.354L106.426 66.4766H104.586V66.354L107.806 65.8638L113.785 64.7607L114.705 64.5156Z" fill="#D1D3D5"/>
    <path d="M17.5 94.4199L17.96 94.5425L18.4199 95.7681V96.5034H17.96V101.528H17.3467V94.5425L17.5 94.4199Z" fill="#CB623B"/>
    <path d="M157.941 146.875H158.248L158.095 148.836L157.635 151.165L157.021 152.268L156.102 153.371H155.642L155.488 153.003L156.562 151.042L157.635 147.855L157.941 146.875Z" fill="#D76339"/>
    <path d="M121.911 85.8408H122.064V89.395L119.918 87.9243L120.071 87.3115L121.604 85.9634L121.911 85.8408Z" fill="#FCFCFC"/>
    <path d="M143.069 222.249H143.223L143.529 223.474L144.143 224.209L145.216 224.7H146.289L147.516 224.209L148.282 223.352H148.436V224.209L147.976 224.332L147.669 224.7L148.129 224.577L148.282 224.945L148.742 225.19V225.435L148.282 225.558L147.822 225.19V224.945L147.056 225.312L145.062 225.435L143.989 225.067L143.069 224.455L143.376 224.209L142.916 223.229L143.069 222.249Z" fill="#657980"/>
    <path d="M93.8535 116.48H95.0801L96.3066 117.338L97.0732 118.319L97.2266 118.687V121.138L96.7666 122.118L96.1533 122.854L95.0801 123.589L94.1602 123.711L94.9268 123.221L96 122.241L96.6133 121.015V118.932L96.1533 117.951L95.0801 117.093L93.8535 116.603V116.48Z" fill="#E4E6E7"/>
    <path d="M95.3867 39.146L96 39.3911L98.2998 40.3716L98.9131 40.4941L101.673 40.6167L101.213 40.8618L100.293 40.9844L99.833 41.2295L98.9131 41.4746H97.8398L97.3799 41.2295V40.9844H97.0732V40.6167L96.3066 40.4941L95.8467 40.249V40.0039L95.54 39.8813L95.3867 39.146Z" fill="#D66238"/>
    <path d="M139.696 59.3682L141.229 59.7358L142.149 60.2261L141.996 60.9614L141.843 61.2065H141.536L141.229 61.6968H140.463L139.696 61.084L139.543 60.2261V59.4907L139.696 59.3682Z" fill="#DF895A"/>
    <path d="M145.216 219.92H146.442V220.165L146.902 220.533L146.596 220.655H144.603V220.9H144.143V221.146H143.836L143.529 221.758L143.223 222.249L143.069 223.352L143.529 224.332L142.916 224.209L142.456 223.474V221.881L143.069 220.9L144.143 220.165L145.216 219.92Z" fill="#435677"/>
    <path d="M93.3936 118.809H93.7002L93.8535 119.422H94.1602V120.893L93.3936 121.873L92.4736 122.118V122.363L91.0938 122.486L91.2471 122.854L92.167 123.466L92.9336 123.711L94.1602 123.834V123.957L93.3936 124.079L94.4668 124.202V124.324H93.2402L91.8604 123.834L90.7871 122.854L89.5605 121.138V120.402L89.8672 120.893L90.6338 121.873L91.8604 121.996L92.9336 121.505L93.5469 120.525L93.7002 119.177H93.3936V118.809Z" fill="#4F5D6B"/>
    <path d="M71.0088 51.647H71.3154L72.2354 53.1177L73.1553 54.7109L73.3086 55.2012L73.1553 55.4463L72.542 55.3237L71.7754 54.8335L71.0088 53.6079L70.8555 52.8726V51.7695L71.0088 51.647Z" fill="#DF895A"/>
    <path d="M56.29 112.313L57.0566 112.436L59.9697 113.539L62.4229 114.52L67.7891 116.48L72.082 117.829L73.9219 118.319V118.564L72.542 118.319L67.4824 116.726L64.416 115.623L60.583 114.152L56.29 112.436V112.313Z" fill="#D3D5D6"/>
    <path d="M95.54 45.8867H96.7666L98.2998 46.2544L99.373 46.9897L100.293 48.2153L100.906 50.0537V50.7891H100.753L100.446 49.1958L99.9863 49.0732L99.0664 47.8477L98.2998 47.1123L97.2266 46.6221L95.0801 46.377L94.7734 46.1318L95.54 45.8867Z" fill="#CFD1D2"/>
    <path d="M121.145 99.5674H123.751L125.131 99.8125L126.817 100.425L126.511 100.548V100.793L126.971 100.916L126.664 101.038L126.357 100.916V100.67L124.978 100.303L122.984 99.9351L120.838 100.058L119.458 100.548L118.845 100.793L118.078 101.406L117.312 101.896L117.005 102.141L116.852 101.651L117.005 101.038L117.312 101.283L118.538 100.425L120.531 99.6899L121.145 99.5674Z" fill="#485873"/>
    <path d="M30.9922 96.7485L31.6055 96.8711L31.9121 97.729L31.7588 98.3418L31.1455 98.2192L31.2988 98.4644V99.8125L31.1455 101.528L30.6855 101.406L29.7656 99.9351L29.9189 99.6899L30.0723 99.8125L30.3789 99.5674V99.8125H30.6855V98.4644L30.8389 96.9937L30.9922 96.7485Z" fill="#D0623F"/>
    <path d="M78.0615 47.48H78.2148V48.3379H78.5215V48.0928L79.1348 47.9702V48.2153L79.4414 48.3379L78.9814 48.7056L78.8281 49.8086H78.5215L78.3682 50.9116L78.0615 51.647L77.9082 51.4019L77.4482 51.5244V51.1567L77.1416 51.2793L77.7549 49.0732L78.0615 47.48Z" fill="#D35838"/>
    <path d="M124.211 90.6206H124.364V91.7236L124.978 91.9688L126.817 93.4395V93.6846L127.277 93.8071L127.584 94.1748L127.431 94.5425H126.971L126.204 93.9297L124.211 93.0718V90.6206Z" fill="#D0D3D4"/>
    <path d="M80.668 90.0078L80.8213 90.2529L79.1348 92.8267L77.9082 94.665L76.9883 96.1357H76.6816L76.375 96.7485L75.6084 97.8516H75.3018L75.4551 97.2388L77.6016 94.1748L79.1348 91.9688L80.668 90.0078Z" fill="#C5CDD2"/>
    <path d="M145.522 221.513L146.136 221.636L146.442 222.126L147.209 222.494L147.056 222.984L146.289 223.106L146.136 223.719H145.522L145.216 223.229L144.603 222.984L144.449 222.494L145.216 222.126L145.522 221.513Z" fill="#687A82"/>
    <path d="M92.4736 49.686H93.3936L93.7002 49.8086V50.7891L92.9336 51.5244L92.3203 51.7695L91.5537 51.2793V50.5439L92.4736 49.686Z" fill="#EDEDEC"/>
    <path d="M113.632 51.1567H114.398L114.858 51.5244L114.705 52.2598L114.092 52.9951L113.019 53.1177L112.559 52.75L112.712 51.8921L113.479 51.2793L113.632 51.1567Z" fill="#E9EAEA"/>
    <path d="M111.792 49.686L112.099 49.8086L111.945 50.9116L111.485 51.0342V55.814L112.099 57.2847L113.325 58.3877H112.865L112.099 57.8975L111.485 57.0396L111.179 56.4268L110.872 54.9561L111.025 52.1372L111.332 50.5439L111.485 50.2988H111.792V49.686Z" fill="#D55F38"/>
    <path d="M54.2969 99.1997L55.6768 99.5674L58.7432 100.67L64.7227 102.999L64.1094 103.122L62.5762 102.631L54.2969 99.3223V99.1997Z" fill="#C7CED2"/>
    <path d="M21.0264 98.2192L21.6396 98.3418L22.5596 99.9351V100.793H22.2529L21.6396 99.6899L21.4863 100.916L21.1797 101.651H21.0264L20.873 99.0771L21.0264 98.2192Z" fill="#B0542F"/>
    <path d="M119.151 193.57H120.378L119.918 193.815L119.765 194.673L120.071 195.531L120.378 198.227L120.531 198.472H120.225L120.071 198.84L119.611 197.369L119.151 194.55V193.57Z" fill="#3E2719"/>
    <path d="M129.73 222.003H132.184L133.41 222.494V222.616H129.73L127.737 222.984L127.277 223.106L127.124 222.861H127.431V222.616L128.504 222.371L129.73 222.003Z" fill="#ABB1B5"/>
    <path d="M153.188 149.326L153.495 149.449L153.035 152.635L152.575 153.493L151.962 153.616L151.809 153.003L152.422 151.777L152.882 149.939L153.188 149.326Z" fill="#D76339"/>
    <path d="M111.945 40.0039H112.559V40.249L110.872 40.9844L109.799 41.2295H108.726L107.346 40.7393V40.4941H110.565L111.639 40.249L111.945 40.0039Z" fill="#D35938"/>
    <path d="M86.0342 151.9L86.3408 152.145L86.6475 153.493H86.9541L88.1807 157.17V157.415H87.874L87.1074 155.699L86.1875 153.371L86.0342 151.9Z" fill="#C4CDD1"/>
    <path d="M93.8535 116.48H95.0801L96.3066 117.338L97.0732 118.319L97.2266 119.177H96.9199V120.28H96.7666L96.46 118.441L95.8467 117.706L94.7734 116.971L93.8535 116.603V116.48Z" fill="#C7CBCE"/>
    <path d="M116.852 46.6221L118.385 46.7446L119.458 47.1123L119.305 47.3574L117.771 47.2349H116.392L114.858 47.7251L114.398 47.6025L115.012 47.1123L116.238 46.7446L116.852 46.6221Z" fill="#EEEFEF"/>
    <path d="M93.3936 118.809H93.7002L93.8535 119.422H94.1602V120.893L93.3936 121.873L92.4736 122.118V122.363H91.2471L91.8604 121.996L92.9336 121.505L93.5469 120.525L93.7002 119.177H93.3936V118.809Z" fill="#3A4C73"/>
    <path d="M123.138 42.8228L123.904 42.9453L124.671 43.5581L124.824 44.1709L124.518 44.6611H124.058L123.138 43.8032L122.831 43.5581L123.138 42.8228Z" fill="#3E1900"/>
    <path d="M122.371 39.5137L123.444 39.7588L123.291 40.0039L122.524 40.1265L122.218 40.4941L122.371 40.9844L122.218 41.2295H122.524L122.371 41.5972L121.451 41.4746L120.378 41.1069L120.838 40.7393L121.911 40.1265L122.371 39.5137Z" fill="#D66139"/>
    <path d="M17.6533 96.3809H17.8066V101.528H17.3467V99.0771L17.5 96.8711L17.6533 96.3809Z" fill="#873C17"/>
    <path d="M91.2471 48.7056L91.4004 48.9507L90.9404 50.4214L91.0938 52.0146H90.6338L90.3271 52.6274L90.0205 53.9756H89.8672V52.75L90.4805 50.2988L90.7871 49.3184L91.2471 48.7056Z" fill="#D35838"/>
    <path d="M91.0938 93.6846H91.2471L91.4004 95.4004L91.5537 95.5229V97.8516H91.4004L91.0938 96.7485L90.3271 95.6455L90.4805 95.1553L90.9404 94.9102L91.0938 93.6846Z" fill="#C8CCCE"/>
    <path d="M93.8535 37.9204L94.4668 38.1655L94.7734 38.043L94.9268 38.5332L94.1602 38.9009H93.8535V39.146H93.0869L92.627 38.9009V38.5332H92.3203V38.2881L93.5469 38.043L93.8535 37.9204Z" fill="#D35838"/>
    <path d="M140.31 52.6274L140.463 52.8726L141.843 52.6274H143.069L143.529 52.9951H142.149L140.616 53.853L140.156 53.9756V53.1177L140.31 52.6274Z" fill="#D66238"/>
    <path d="M30.9922 96.7485L31.6055 96.8711L31.9121 97.729L31.7588 98.3418L31.1455 98.2192V99.0771L30.8389 99.3223V96.9937L30.9922 96.7485Z" fill="#C05632"/>
    <path d="M90.7871 117.706H92.0137L93.2402 118.074L93.7002 118.564V118.809L93.2402 118.932L92.7803 118.564V118.319L92.0137 118.196H90.7871L90.3271 118.564H90.0205L90.3271 117.829L90.7871 117.706Z" fill="#4A5C70"/>
    <path d="M28.5391 96.9937H28.999L29.9189 98.5869L30.2256 99.1997V99.9351L29.459 99.3223L28.999 98.3418L28.6924 97.3613L28.5391 96.9937Z" fill="#B65530"/>
    <path d="M33.1387 96.3809H37.8916L38.0449 96.8711L37.8916 96.9937H35.4385V96.8711L36.5117 96.626H32.9854L33.1387 96.3809Z" fill="#D97248"/>
    <path d="M33.4453 86.5762L33.5986 87.0664L31.9121 87.4341L29.7656 87.6792L27.7725 87.8018L28.2324 87.5566L32.3721 86.9438L33.4453 86.8213V86.5762Z" fill="#949698"/>
    <path d="M18.7266 83.6348L19.1865 83.8799L19.3398 84.8604L19.6465 84.9829L19.7998 87.3115L19.4932 87.0664L19.0332 85.3506L18.7266 85.4731V83.6348Z" fill="#BFCAD0"/>
    <path d="M123.291 99.5674L125.131 99.8125L126.817 100.425L126.511 100.548V100.793L126.971 100.916L126.664 101.038L126.357 100.916V100.67L124.978 100.303L122.984 99.9351L123.291 99.8125V99.5674Z" fill="#5F6B7A"/>
    <path d="M41.1113 96.0132L41.7246 96.5034L41.8779 97.3613V98.832L41.7246 99.9351H41.5713L41.1113 96.0132Z" fill="#5E7F8B"/>
    <path d="M115.165 109.372H115.318V115.745H115.165L115.012 112.068L114.858 110.965L115.165 109.372Z" fill="#667085"/>
    <path d="M147.976 224.577L148.742 225.19V225.435L148.282 225.558L147.822 225.19V224.945L147.056 225.312L145.676 225.435L145.369 224.945L146.749 224.822H147.209L147.976 224.577Z" fill="#4F697D"/>
    <path d="M115.472 117.338H115.625L115.932 118.687L116.392 119.544L116.698 119.912L115.778 119.79L115.318 119.177L115.165 118.441L115.318 118.319L115.472 117.338Z" fill="#6A7A81"/>
    <path d="M54.2969 99.1997L55.6768 99.5674L58.7432 100.67L59.3564 101.038L58.8965 101.161L54.2969 99.3223V99.1997Z" fill="#D3D5D6"/>
    <path d="M80.668 90.0078L80.8213 90.2529L79.1348 92.8267L78.5215 93.4395L78.3682 93.0718L80.5146 90.1304L80.668 90.0078Z" fill="#D3D5D6"/>
    <path d="M32.9854 82.8994L33.4453 83.022H33.1387L33.4453 85.5957L33.5986 86.5762L33.4453 86.8213H33.1387L32.832 85.7183V85.1055L32.9854 84.4927V82.8994Z" fill="#A7B2B7"/>
    <path d="M103.359 70.6436H109.032L108.419 70.8887L107.652 71.0112H105.659L103.359 70.7661V70.6436Z" fill="#D76339"/>
    <path d="M95.3867 39.146L96 39.3911L97.2266 40.3716V40.6167L96.3066 40.4941L95.8467 40.249V40.0039L95.54 39.8813L95.3867 39.146Z" fill="#D35838"/>
    <path d="M32.6787 81.5513L32.9854 81.6738L33.1387 82.8994V84.9829L32.832 85.1055L32.5254 84.125L32.6787 81.5513Z" fill="#939698"/>
    <path d="M105.812 39.2686L106.272 39.3911L105.966 40.0039H104.893L105.046 40.3716L104.279 40.249L103.359 40.4941L102.746 40.3716L105.046 39.6362L105.812 39.2686Z" fill="#D66239"/>
    <path d="M18.8799 85.228L19.1865 85.3506L19.6465 87.0664V88.5371L19.3398 88.4146L18.8799 85.7183V85.228Z" fill="#949698"/>
    <path d="M88.7939 56.6719H90.6338V56.917L91.2471 56.7944L91.0938 57.1621H88.334L88.4873 56.7944L88.7939 56.6719Z" fill="#D35938"/>
    <path d="M103.206 58.8779H103.359V59.4907H105.046L105.353 59.6133V59.8584H102.593L103.206 58.8779Z" fill="#D45D38"/>
    <path d="M85.4209 40.6167L86.0342 40.8618L85.8809 41.5972L85.4209 41.9648L84.8076 41.7197L85.1143 40.7393L85.4209 40.6167Z" fill="#D35838"/>
    <path d="M28.3857 97.1162L28.8457 97.2388L28.999 97.9741L28.6924 98.2192L28.3857 98.9546L27.7725 99.0771L28.0791 97.729L28.3857 97.1162Z" fill="#D66440"/>
    <path d="M102.899 59.981L103.819 60.1035L103.666 60.4712L103.053 60.7163H102.439L101.52 60.5938L101.979 60.1035L102.899 59.981Z" fill="#D3D5D6"/>
    <path d="M127.277 118.074L127.584 118.564V119.054L127.431 119.299L127.277 120.035H126.664L126.511 119.79L127.124 118.564L127.277 118.074Z" fill="#61727D"/>
    <path d="M32.5254 79.8354L32.832 79.958L31.6055 80.3257L30.3789 80.5708H28.8457L28.999 80.3257L32.5254 79.8354Z" fill="#949698"/>
    <path d="M109.492 44.5386L109.952 44.7837L110.565 45.6416L111.025 46.0093V46.2544L110.259 46.1318L109.646 45.6416L109.492 44.5386Z" fill="#D45C38"/>
    <path d="M96.1533 121.996H96.46L96.6133 122.363L95.54 123.344L94.6201 123.711L94.1602 123.589L95.3867 122.854L96.1533 121.996Z" fill="#BBC5CA"/>
    <path d="M118.538 100.425L118.845 100.548L118.538 100.793L118.691 101.038L117.312 101.896L117.005 102.141L116.852 101.651L117.005 101.038L117.312 101.283L118.538 100.425Z" fill="#657084"/>
    <path d="M89.5605 120.402L89.8672 120.893L90.6338 121.873L91.5537 122.118L92.0137 122.486L90.9404 122.608L90.7871 122.241L90.1738 122.118L89.5605 121.138V120.402Z" fill="#5D6E7B"/>
    <path d="M111.792 49.686L112.099 49.8086L111.945 50.9116L111.485 51.0342L111.332 53.9756H111.179V51.2793L111.485 50.2988H111.792V49.686Z" fill="#C65A34"/>
    <path d="M90.3271 43.6807L90.6338 43.8032L90.9404 44.5386L90.4805 44.9062L89.8672 44.6611L89.7139 44.0483L90.3271 43.6807Z" fill="#401A00"/>
    <path d="M34.0586 96.5034H36.665L36.3584 96.8711L35.4385 96.9937H34.2119L34.5186 96.7485L34.0586 96.5034Z" fill="#D55F38"/>
    <path d="M148.282 224.822L148.896 225.067L149.815 225.803V226.17L149.049 226.048L148.436 225.68V225.435H148.742L148.282 225.067V224.822Z" fill="#3B4B53"/>
    <path d="M19.1865 116.48H21.333L20.873 116.726L18.4199 116.971H17.6533L18.2666 116.848V116.603L19.1865 116.48Z" fill="#33424C"/>
    <path d="M87.2607 154.964L87.5674 155.332L88.1807 157.415H87.874L87.1074 155.699L87.2607 154.964Z" fill="#D1D4D5"/>
    <path d="M41.7246 98.832L42.0312 99.1997L42.4912 100.67L42.3379 101.038V100.793L41.7246 100.916V98.832Z" fill="#4C6978"/>
    <path d="M114.245 47.48L114.858 47.6025L115.625 47.48V47.7251L113.632 48.4604V47.9702L114.245 47.48Z" fill="#D4D6D7"/>
    <path d="M100.14 41.2295H101.979L102.439 41.7197H101.826L101.673 41.9648L100.14 41.4746V41.2295Z" fill="#D66138"/>
    <path d="M97.0732 40.7393H98.2998L98.7598 41.1069L98.6064 41.3521L98.9131 41.4746H97.8398L97.3799 41.2295V40.9844H97.0732V40.7393Z" fill="#D35838"/>
    <path d="M61.9629 102.141L62.8828 102.264L64.7227 102.999L64.1094 103.122L62.5762 102.631L61.9629 102.386V102.141Z" fill="#C0C4C6"/>
    <path d="M105.046 6.66797L109.032 6.91309L108.419 7.1582L105.659 7.03564V6.79053L105.046 6.66797Z" fill="#44312B"/>
    <path d="M119.151 193.57H120.378L119.918 193.815L119.458 195.163H119.305L119.151 194.55V193.57Z" fill="#3E2C23"/>
    <path d="M63.8027 102.999L65.3359 103.244L66.2559 103.857L65.6426 103.979L63.8027 103.122V102.999Z" fill="#C5CDD2"/>
    <path d="M21.6396 98.9546H21.9463L22.5596 99.9351V100.793H22.2529L21.6396 99.3223V98.9546Z" fill="#85411A"/>
    <path d="M32.3721 81.7964H32.5254L32.6787 82.4092V83.6348L32.3721 84.0024L32.2188 83.2671H31.2988V83.1445H32.3721L32.2188 82.5317L32.3721 81.7964Z" fill="#BFCAD0"/>
    <path d="M90.7871 52.1372L91.4004 52.2598L91.5537 52.8726L91.2471 53.1177H90.7871L90.6338 52.2598L90.7871 52.1372Z" fill="#D0CFCF"/>
    <path d="M129.884 222.126H132.337L133.41 222.494V222.616H132.49L131.417 222.371L129.884 222.249V222.126Z" fill="#8B9EA4"/>
    <path d="M120.991 58.5103L121.911 58.6328L123.138 59.0005V59.123H121.911L121.298 59.0005V58.7554H120.991V58.5103Z" fill="#D55F38"/>
    <path d="M93.3936 118.809H93.7002L93.8535 119.422H94.1602V120.402L93.7002 120.647V119.177H93.3936V118.809Z" fill="#2C3E56"/>
    <path d="M76.5283 96.1357V96.5034L75.6084 97.8516H75.3018L75.4551 97.2388L76.0684 96.3809L76.5283 96.1357Z" fill="#BAC7CF"/>
    <path d="M112.712 48.2153L113.019 48.4604L111.945 49.9312L111.639 49.686L112.405 48.4604L112.712 48.2153Z" fill="#D86B42"/>
    <path d="M101.826 42.0874L102.439 42.3325L102.593 42.9453L102.439 43.313L101.979 43.1904L101.826 42.7002V42.0874Z" fill="#411B00"/>
    <path d="M132.95 218.939L133.41 219.062L132.03 219.43L130.19 219.185V219.062L132.95 218.939Z" fill="#778D94"/>
    <path d="M142.916 54.2207H143.223V54.4658H143.529L143.376 55.0786L143.529 55.6914L143.376 55.9365H143.069L142.916 54.8335L142.609 54.4658H142.916V54.2207Z" fill="#D66238"/>
    <path d="M111.945 53.6079H112.405V54.5884L111.639 54.4658V53.853L111.945 53.6079Z" fill="#DFE0E1"/>
    <path d="M90.0205 85.8408L90.1738 86.3311L89.5605 87.9243H89.2539L89.5605 86.6987L90.0205 85.8408Z" fill="#D3D5D6"/>
    <path d="M126.511 100.548L127.431 100.793V101.038L128.044 101.283L127.891 101.773L126.817 100.916L126.511 100.793V100.548Z" fill="#465462"/>
    <path d="M92.3203 116.113L93.2402 116.235V116.358L91.8604 116.726L90.7871 117.338L91.0938 116.848L92.3203 116.113Z" fill="#526272"/>
    <path d="M148.282 223.352H148.436V224.209L147.976 224.332L147.669 224.7L147.209 224.577L148.282 223.352Z" fill="#64777F"/>
    <path d="M95.8467 116.848L96.3066 116.971L96.9199 117.706V117.951H97.2266L97.3799 118.687H97.0732L96.3066 117.461L95.8467 117.093V116.848Z" fill="#3C2C27"/>
    <path d="M30.9922 87.4341H31.7588L31.1455 87.6792L28.999 88.0469L28.5391 87.9243L29.459 87.5566L30.9922 87.4341Z" fill="#C1CBD0"/>
    <path d="M33.4453 86.5762L33.5986 87.0664L32.6787 87.3115H31.6055L31.7588 87.0664L33.4453 86.8213V86.5762Z" fill="#859BA1"/>
    <path d="M148.436 223.964L148.589 224.332L148.282 224.945L147.976 224.7L147.209 224.822L147.056 225.067L146.902 224.7L147.669 224.577L147.976 224.209H148.436V223.964Z" fill="#405A74"/>
    <path d="M29.459 98.832L30.0723 98.9546L30.2256 99.1997V99.9351L29.459 99.3223V98.832Z" fill="#974520"/>
    <path d="M72.6953 47.1123L73.002 47.48L71.9287 47.7251L71.3154 48.2153L71.0088 48.0928L71.6221 47.48L72.6953 47.1123Z" fill="#D66238"/>
    <path d="M91.5537 119.544H92.167V120.525L91.5537 120.28V119.544Z" fill="#324457"/>
    <path d="M91.8604 79.1001L92.3203 79.2227V79.4678H92.627L92.3203 80.0806L91.707 79.7129L91.8604 79.1001Z" fill="#CCD1D4"/>
    <path d="M90.4805 122.241H90.7871L91.2471 122.854L92.167 123.466V123.711L91.4004 123.466L90.4805 122.363V122.241Z" fill="#2F3F51"/>
    <path d="M104.279 59.4907L105.353 59.6133V59.8584H103.053V59.7358H104.279V59.4907Z" fill="#D66238"/>
    <path d="M102.899 58.6328L103.053 59.0005L102.286 59.981H101.979V60.2261H101.673V59.7358L102.439 59.3682L102.899 58.6328Z" fill="#D55E39"/>
    <path d="M77.9082 48.9507L78.2148 49.3184L78.0615 50.2988H77.6016L77.7549 49.0732L77.9082 48.9507Z" fill="#D66138"/>
    <path d="M113.785 47.3574L113.938 47.8477L113.479 48.3379L113.019 48.2153L113.325 47.7251L113.785 47.3574Z" fill="#D7663D"/>
    <path d="M103.359 44.7837H103.819L103.513 45.2739L102.593 45.8867L102.286 45.7642L103.359 44.7837Z" fill="#D45C38"/>
    <path d="M96.1533 43.5581H98.1465L98.6064 43.8032L97.5332 43.9258L96.1533 43.6807V43.5581Z" fill="#D35838"/>
    <path d="M107.192 153.861H107.346L107.499 154.596H107.806L107.652 155.454L107.192 155.332V153.861Z" fill="#46545D"/>
    <path d="M78.2148 93.3169H78.5215L78.3682 93.9297L77.9082 94.665L77.6016 94.1748L78.2148 93.3169Z" fill="#C8CFD2"/>
    <path d="M76.835 51.647L77.2949 51.8921L76.835 53.1177L76.6816 52.6274L76.5283 52.3823H76.835L76.5283 51.7695L76.835 51.647Z" fill="#D35838"/>
    </svg>
    